<svg width="520" height="640" viewBox="0 0 520 640" fill="none" xmlns="http://www.w3.org/2000/svg">
<g clip-path="url(#clip0)">
<rect width="520" height="640" fill="white"/>
<rect x="-19" y="-16" width="560" height="678" fill="#F5F5F5"/>
<g opacity="0.5" filter="url(#filter0_d)">
<path d="M196.584 -24.9478C195.925 -19.3443 183.523 2.73377 139.193 46.2177C94.8616 89.7017 72.156 154.733 66.3446 181.813C55.2337 203.077 27.0654 247.989 3.27945 257.529C-20.5066 267.068 -10.6637 54.3972 -2.76899 -53.1308L196.584 -24.9478Z" fill="#44DF4A"/>
</g>
<g filter="url(#filter1_d)">
<path d="M519.685 305C505.185 323.667 470.685 371.8 448.685 415C421.185 469 412.773 530.445 397.069 550C370.569 583 379.685 612 419.185 625C450.785 635.4 499.351 636 519.685 635V305Z" fill="#A1EFEA"/>
</g>
<g opacity="0.5" filter="url(#filter2_d)">
<path d="M-7.31604 479.111C9.54225 483.516 48.4904 480.098 69.4166 431.18C95.5743 370.033 109.788 318.952 96.5587 278.026C85.9751 245.284 21.7764 198.11 -9.00004 178.616L-7.31604 479.111Z" fill="#595FDD"/>
</g>
<g opacity="0.5" filter="url(#filter3_d)">
<path d="M547 434.622C544.625 405.539 542.102 354.352 484.211 334.41C429.87 315.69 389.359 349.367 376 377.287C395.148 391.745 382.234 381.275 399.156 395.235C407.32 379.447 442.708 353.754 481.539 377.287C520.37 400.819 518.055 423.155 523.398 477L547 434.622Z" fill="#CE407B"/>
</g>
<g opacity="0.5" filter="url(#filter4_d)">
<path d="M349 128H535V84H349V128Z" fill="#FFA800"/>
</g>
<g filter="url(#filter5_d)">
<path d="M486.525 75.1847C484.677 77.1624 482.71 78.8867 480.614 80.3703C477.756 82.396 475.535 83.7077 473.973 84.3212C471.516 85.358 469.217 85.5213 467.075 84.8111C465.553 84.267 463.869 83.1762 462.042 81.5296C460.206 79.8841 458.387 78.7489 456.58 78.1027C454.688 77.4264 452.505 77.1307 450.018 77.2307C447.533 77.3356 445.613 77.1698 444.256 76.7322C442.192 76.0935 440.479 74.4719 439.127 71.8628C438.237 70.2732 437.313 67.7575 436.352 64.3226C435.317 60.6589 434.824 56.6484 434.867 52.3051C434.929 47.6107 435.656 43.3094 437.057 39.3919C438.66 34.9072 441.013 31.3819 444.113 28.8348C446.574 26.7744 449.338 25.4461 452.413 24.8452C455.494 24.242 458.517 24.4529 461.491 25.4603C463.111 26.0398 465.057 27.2995 467.336 29.2269C469.615 31.1542 471.127 32.259 471.863 32.5223C472.42 32.7213 474.501 32.8018 478.102 32.7743C481.494 32.7672 484.191 33.2267 486.206 34.146C491.68 36.6157 495.118 40.3479 496.502 45.3564C498.152 51.3267 498.406 53.4243 496.494 58.9271C494.966 63.3253 494.098 65.1342 492.196 67.9858C490.864 69.9819 490.404 70.524 488.819 72.5006C488.059 73.4487 487.296 74.3398 486.525 75.1847ZM491.783 19.7262C490.586 23.073 488.242 25.763 484.773 27.785C480.599 30.1704 476.329 30.8887 472.584 29.1959C472.678 28.7767 472.804 28.3451 472.963 27.9012C474.113 24.6848 476.737 21.7452 480.235 19.8209C481.983 18.841 483.986 18.218 486.237 17.9578C488.479 17.7104 490.466 17.841 492.196 18.36C492.08 18.8273 491.942 19.2823 491.783 19.7262Z" fill="#D13C3C"/>
</g>
<g clip-path="url(#clip1)" filter="url(#filter6_d)">
<path d="M429.857 48.5211C429.919 49.9024 429.845 51.2369 429.638 52.5323C429.356 54.2997 429.041 55.5794 428.707 56.369C428.207 57.6365 427.445 58.5343 426.42 59.0625C425.677 59.4236 424.677 59.6486 423.423 59.7271C422.167 59.8091 421.102 60.0676 420.22 60.4964C419.297 60.9454 418.409 61.6366 417.557 62.5804C416.707 63.5252 415.96 64.1667 415.315 64.5058C414.344 65.0312 413.14 65.0769 411.705 64.638C410.806 64.3948 409.557 63.8331 407.96 62.9564C406.253 62.0247 404.612 60.7714 403.042 59.2034C401.35 57.5033 400.04 55.7005 399.11 53.789C398.046 51.6008 397.6 49.4818 397.778 47.4397C397.905 45.8049 398.408 44.3212 399.287 42.9836C400.168 41.6434 401.326 40.6149 402.756 39.8894C403.547 39.5048 404.702 39.2448 406.22 39.1016C407.739 38.9584 408.682 38.8012 409.042 38.6265C409.313 38.4944 410.086 37.7634 411.364 36.4387C412.573 35.1979 413.705 34.3777 414.761 33.9704C417.619 32.8545 420.21 32.9334 422.533 34.2181C425.302 35.7496 426.159 36.4065 427.485 39.0712C428.544 41.2009 428.894 42.1642 429.255 43.8779C429.508 45.0775 429.542 45.439 429.697 46.7241C429.772 47.3404 429.824 47.9377 429.857 48.5211ZM411.489 26.7808C412.283 28.4138 412.428 30.2312 411.926 32.2201C411.305 34.5967 410.041 36.4122 408.085 37.1747C407.965 36.9904 407.853 36.79 407.748 36.5734C406.984 35.004 406.849 32.9953 407.396 31.0308C407.664 30.0421 408.152 29.0883 408.861 28.1736C409.572 27.2667 410.33 26.5877 411.138 26.1418C411.267 26.351 411.384 26.5642 411.489 26.7808Z" fill="#D13C3C"/>
</g>
<g filter="url(#filter7_d)">
<path d="M499.126 110.665C498.526 111.91 497.828 113.05 497.031 114.092C495.944 115.515 495.06 116.492 494.391 117.028C493.35 117.907 492.254 118.336 491.101 118.315C490.276 118.281 489.289 118.005 488.147 117.479C487.002 116.955 485.942 116.678 484.963 116.637C483.937 116.594 482.827 116.782 481.629 117.208C480.433 117.637 479.471 117.848 478.743 117.84C477.639 117.842 476.557 117.311 475.501 116.244C474.826 115.604 473.993 114.517 473.002 112.988C471.941 111.358 471.091 109.476 470.453 107.351C469.77 105.052 469.471 102.843 469.559 100.719C469.66 98.2883 470.272 96.2112 471.398 94.4979C472.285 93.119 473.431 92.0513 474.84 91.291C476.251 90.5288 477.758 90.1724 479.362 90.2122C480.24 90.2487 481.381 90.5677 482.785 91.1617C484.19 91.7556 485.095 92.0649 485.494 92.0815C485.796 92.094 486.823 91.8171 488.576 91.2567C490.229 90.738 491.614 90.5525 492.737 90.6948C495.783 91.068 498.026 92.3664 499.462 94.5993C501.174 97.261 501.616 98.2456 501.52 101.22C501.442 103.598 501.294 104.612 500.799 106.292C500.453 107.468 500.311 107.802 499.838 109.007C499.611 109.585 499.374 110.136 499.126 110.665ZM493.267 82.8138C493.192 84.6281 492.457 86.2965 491.072 87.8096C489.398 89.6073 487.425 90.6062 485.34 90.3495C485.323 90.1306 485.319 89.9009 485.329 89.6603C485.401 87.9166 486.235 86.084 487.648 84.6142C488.353 83.8705 489.235 83.2624 490.293 82.7937C491.349 82.3324 492.339 82.0942 493.261 82.0847C493.276 82.3302 493.277 82.5732 493.267 82.8138Z" fill="#D13C3C"/>
</g>
<g filter="url(#filter8_d)">
<path d="M39.9791 566.632C41.622 564.482 43.4093 562.571 45.3482 560.888C47.9919 558.59 50.0725 557.065 51.5665 556.3C53.9086 555.025 56.1805 554.635 58.3822 555.13C59.9505 555.521 61.7341 556.44 63.715 557.898C65.7041 559.354 67.6266 560.304 69.4889 560.768C71.4383 561.254 73.6397 561.333 76.1049 560.987C78.5674 560.637 80.4939 560.612 81.8878 560.914C84.0051 561.345 85.8698 562.789 87.473 565.252C88.5156 566.746 89.6841 569.158 90.9802 572.481C92.3717 576.024 93.2589 579.967 93.6455 584.293C94.0486 588.97 93.7501 593.322 92.7437 597.359C91.5915 601.98 89.5985 605.721 86.7655 608.562C84.5202 610.856 81.9015 612.451 78.9004 613.353C75.8947 614.258 72.865 614.347 69.8065 613.638C68.1366 613.222 66.0761 612.161 63.6178 610.468C61.1595 608.775 59.5455 607.825 58.7868 607.636C58.2132 607.493 56.1344 607.619 52.5531 608.002C49.1786 608.345 46.4499 608.154 44.3534 607.439C38.6618 605.522 34.8721 602.148 32.9998 597.301C30.7678 591.523 30.3077 589.461 31.6662 583.796C32.7519 579.268 33.4366 577.382 35.0478 574.357C36.1757 572.239 36.5794 571.654 37.9611 569.53C38.6237 568.512 39.2955 567.549 39.9791 566.632ZM40.2296 622.339C41.0894 618.89 43.1565 615.982 46.4081 613.627C50.3263 610.84 54.5042 609.703 58.3987 611.018C58.3464 611.444 58.2632 611.886 58.1491 612.343C57.3228 615.658 55.0018 618.843 51.7121 621.103C50.0686 622.251 48.1372 623.069 45.9235 623.55C43.7169 624.018 41.7261 624.085 39.9537 623.739C40.0224 623.263 40.1156 622.796 40.2296 622.339Z" fill="#D13C3C"/>
</g>
<g clip-path="url(#clip2)" filter="url(#filter9_d)">
<path d="M99.0053 587.563C98.8073 586.195 98.7486 584.859 98.827 583.55C98.9327 581.763 99.1196 580.459 99.3743 579.64C99.746 578.329 100.416 577.36 101.383 576.733C102.086 576.301 103.059 575.978 104.3 575.776C105.542 575.57 106.576 575.208 107.411 574.694C108.285 574.156 109.101 573.38 109.856 572.356C110.608 571.332 111.287 570.62 111.895 570.219C112.81 569.6 114.003 569.436 115.475 569.73C116.393 569.884 117.692 570.319 119.368 571.034C121.159 571.792 122.915 572.877 124.633 574.282C126.485 575.806 127.967 577.471 129.081 579.281C130.356 581.353 131.01 583.418 131.034 585.467C131.069 587.107 130.716 588.633 129.973 590.051C129.229 591.472 128.178 592.61 126.827 593.473C126.078 593.934 124.954 594.307 123.457 594.599C121.961 594.892 121.037 595.142 120.697 595.351C120.44 595.509 119.743 596.313 118.603 597.758C117.522 599.112 116.477 600.04 115.466 600.55C112.733 601.943 110.146 602.121 107.708 601.072C104.8 599.822 103.883 599.253 102.3 596.732C101.035 594.717 100.592 593.794 100.063 592.124C99.6928 590.955 99.6235 590.599 99.342 589.335C99.207 588.729 99.0958 588.14 99.0053 587.563ZM119.432 607.381C118.481 605.834 118.158 604.04 118.46 602.011C118.843 599.585 119.921 597.653 121.793 596.701C121.93 596.873 122.061 597.061 122.188 597.266C123.102 598.753 123.435 600.738 123.085 602.747C122.917 603.757 122.525 604.755 121.91 605.735C121.292 606.708 120.605 607.458 119.845 607.982C119.696 607.787 119.559 607.586 119.432 607.381Z" fill="#D13C3C"/>
</g>
<g filter="url(#filter10_d)">
<path d="M23.9315 532.572C24.4062 531.273 24.9879 530.07 25.678 528.954C26.6184 527.431 27.4017 526.372 28.0143 525.771C28.9632 524.794 30.0122 524.259 31.1614 524.166C31.9857 524.118 32.9954 524.296 34.1831 524.706C35.3745 525.114 36.4566 525.285 37.4355 525.229C38.4603 525.17 39.546 524.874 40.6961 524.331C41.8441 523.786 42.78 523.481 43.5058 523.416C44.6041 523.305 45.7331 523.727 46.8892 524.684C47.6247 525.255 48.561 526.254 49.698 527.678C50.915 529.195 51.9466 530.983 52.7923 533.035C53.6995 535.255 54.2149 537.423 54.3372 539.545C54.4771 541.975 54.0731 544.102 53.1227 545.918C52.3759 547.378 51.3408 548.554 50.0139 549.45C48.6851 550.348 47.2207 550.851 45.6212 550.97C44.7434 551.021 43.5771 550.816 42.1208 550.364C40.6646 549.912 39.733 549.694 39.3342 549.717C39.0327 549.734 38.0377 550.111 36.349 550.842C34.755 551.522 33.395 551.843 32.2636 551.812C29.1961 551.742 26.835 550.672 25.1855 548.592C23.2191 546.112 22.6814 545.176 22.4836 542.207C22.3254 539.833 22.373 538.809 22.6994 537.089C22.9278 535.884 23.0359 535.538 23.3873 534.292C23.5558 533.694 23.7373 533.123 23.9315 532.572ZM32.5153 559.707C32.4109 557.894 32.9774 556.162 34.2058 554.519C35.6939 552.565 37.5591 551.375 39.6585 551.425C39.6977 551.641 39.7243 551.869 39.7381 552.109C39.8385 553.852 39.1901 555.758 37.9287 557.36C37.3014 558.17 36.4835 558.862 35.4768 559.433C34.4715 559.997 33.5105 560.332 32.5935 560.432C32.5546 560.189 32.5292 559.948 32.5153 559.707Z" fill="#D13C3C"/>
</g>
<g filter="url(#filter11_d)">
<g filter="url(#filter12_d)">
<path d="M123.19 187.06C142.23 171.66 155.53 163.96 163.09 163.96C170.93 163.96 183.25 171.38 200.05 186.22C217.13 200.78 227.77 211.14 231.97 217.3C236.17 223.18 238.27 232.98 238.27 246.7C238.27 260.42 236.17 270.78 231.97 277.78C227.77 284.5 220.07 293.18 208.87 303.82C226.51 318.38 238.97 330.56 246.25 340.36C249.33 345.4 250.87 354.92 250.87 368.92C250.87 382.64 249.33 391.6 246.25 395.8C241.21 406.72 229.03 420.72 209.71 437.8C190.39 454.6 175.13 463 163.93 463H76.9898V283.24C76.9898 260.56 75.3098 244.6 71.9498 235.36C68.8698 226.12 62.1498 215.2 51.7898 202.6L107.23 163.96C113.95 169.56 119.27 177.26 123.19 187.06ZM134.95 335.32V412.18H163.93C167.57 412.18 172.05 409.38 177.37 403.78C182.69 397.9 186.47 392.86 188.71 388.66C191.23 384.18 192.49 375.22 192.49 361.78C192.49 352.54 185.49 343.72 171.49 335.32H134.95ZM134.95 258.88V288.7H156.37C159.45 288.7 163.23 286.04 167.71 280.72C172.47 275.12 175.69 270.22 177.37 266.02C179.05 261.82 179.89 256.78 179.89 250.9C179.89 245.02 177.09 238.44 171.49 231.16C165.89 223.6 160.71 219.82 155.95 219.82C151.19 219.82 143.77 221.64 133.69 225.28C134.53 236.2 134.95 247.4 134.95 258.88ZM299.245 463V233.68C299.245 219.4 297.565 208.48 294.205 200.92C290.845 193.36 285.525 186.5 278.245 180.34L324.445 148C344.605 163.96 354.685 186.5 354.685 215.62V253.84C371.485 239 383.525 231.58 390.805 231.58C398.365 231.58 409.705 239.14 424.825 254.26C440.225 269.1 449.045 280.02 451.285 287.02C454.365 294.02 455.905 315.02 455.905 350.02C455.905 384.74 454.365 405.6 451.285 412.6C449.045 419.6 440.225 430.66 424.825 445.78C409.705 460.62 398.785 468.04 392.065 468.04C382.265 468.04 366.585 457.82 345.025 437.38L340.405 463H299.245ZM356.785 399.16C358.745 402.52 362.665 406.16 368.545 410.08C374.705 413.72 379.325 415.54 382.405 415.54C385.485 415.54 388.705 413.72 392.065 410.08C395.705 406.44 398.365 402.66 400.045 398.74C401.725 394.82 402.565 378.58 402.565 350.02C402.565 321.18 401.725 304.94 400.045 301.3C398.365 297.38 395.705 293.6 392.065 289.96C388.705 286.04 385.485 284.08 382.405 284.08C379.605 284.08 375.125 286.04 368.965 289.96C363.085 293.6 359.165 296.82 357.205 299.62C354.965 304.38 353.845 321.32 353.845 350.44C353.845 379.28 354.825 395.52 356.785 399.16Z" fill="#EDC948"/>
<path d="M123.19 187.06L122.261 187.431L122.765 188.69L123.819 187.838L123.19 187.06ZM200.05 186.22L199.388 186.969L199.394 186.975L199.401 186.981L200.05 186.22ZM231.97 217.3L231.144 217.863L231.15 217.872L231.156 217.881L231.97 217.3ZM231.97 277.78L232.818 278.31L232.823 278.302L232.827 278.294L231.97 277.78ZM208.87 303.82L208.181 303.095L207.363 303.873L208.233 304.591L208.87 303.82ZM246.25 340.36L247.103 339.839L247.08 339.8L247.053 339.764L246.25 340.36ZM246.25 395.8L245.443 395.209L245.384 395.29L245.342 395.381L246.25 395.8ZM209.71 437.8L210.366 438.555L210.372 438.549L209.71 437.8ZM76.9898 463H75.9898V464H76.9898V463ZM71.9498 235.36L71.0012 235.676L71.0054 235.689L71.0101 235.702L71.9498 235.36ZM51.7898 202.6L51.2181 201.78L50.3297 202.399L51.0174 203.235L51.7898 202.6ZM107.23 163.96L107.87 163.192L107.284 162.703L106.658 163.14L107.23 163.96ZM134.95 335.32V334.32H133.95V335.32H134.95ZM134.95 412.18H133.95V413.18H134.95V412.18ZM177.37 403.78L178.095 404.469L178.103 404.46L178.111 404.451L177.37 403.78ZM188.71 388.66L187.838 388.17L187.833 388.18L187.827 388.189L188.71 388.66ZM171.49 335.32L172.004 334.462L171.767 334.32H171.49V335.32ZM134.95 288.7H133.95V289.7H134.95V288.7ZM167.71 280.72L166.948 280.072L166.945 280.076L167.71 280.72ZM177.37 266.02L178.298 266.391L177.37 266.02ZM171.49 231.16L170.686 231.755L170.692 231.762L170.697 231.77L171.49 231.16ZM133.69 225.28L133.35 224.339L132.634 224.598L132.693 225.357L133.69 225.28ZM123.819 187.838C133.319 180.153 141.359 174.414 147.946 170.6C154.571 166.765 159.59 164.96 163.09 164.96V162.96C159.03 162.96 153.619 165.005 146.944 168.87C140.231 172.756 132.101 178.567 122.561 186.282L123.819 187.838ZM163.09 164.96C166.732 164.96 171.579 166.699 177.694 170.382C183.782 174.048 191.011 179.57 199.388 186.969L200.712 185.471C192.289 178.03 184.958 172.422 178.726 168.668C172.521 164.931 167.288 162.96 163.09 162.96V164.96ZM199.401 186.981C216.499 201.556 227.032 211.833 231.144 217.863L232.796 216.737C228.508 210.447 217.76 200.004 200.699 185.459L199.401 186.981ZM231.156 217.881C235.167 223.496 237.27 233.029 237.27 246.7H239.27C239.27 232.931 237.173 222.864 232.784 216.719L231.156 217.881ZM237.27 246.7C237.27 260.348 235.176 270.494 231.112 277.266L232.827 278.294C237.164 271.066 239.27 260.492 239.27 246.7H237.27ZM231.122 277.25C226.991 283.86 219.366 292.469 208.181 303.095L209.559 304.545C220.774 293.891 228.549 285.14 232.818 278.31L231.122 277.25ZM208.233 304.591C225.855 319.136 238.24 331.255 245.447 340.956L247.053 339.764C239.699 329.865 227.165 317.624 209.506 303.049L208.233 304.591ZM245.397 340.881C246.839 343.243 247.967 346.737 248.728 351.44C249.486 356.129 249.87 361.952 249.87 368.92H251.87C251.87 361.888 251.483 355.951 250.702 351.12C249.923 346.303 248.74 342.517 247.103 339.839L245.397 340.881ZM249.87 368.92C249.87 375.749 249.486 381.357 248.729 385.761C247.969 390.186 246.847 393.294 245.443 395.209L247.056 396.391C248.733 394.106 249.921 390.634 250.7 386.099C251.484 381.543 251.87 375.811 251.87 368.92H249.87ZM245.342 395.381C240.396 406.098 228.356 419.981 209.048 437.051L210.372 438.549C229.704 421.459 242.024 407.342 247.158 396.219L245.342 395.381ZM209.054 437.045C199.425 445.418 190.839 451.67 183.293 455.824C175.736 459.984 169.293 462 163.93 462V464C169.767 464 176.554 461.816 184.257 457.576C191.971 453.33 200.675 446.982 210.366 438.555L209.054 437.045ZM163.93 462H76.9898V464H163.93V462ZM77.9898 463V283.24H75.9898V463H77.9898ZM77.9898 283.24C77.9898 260.556 76.3153 244.439 72.8896 235.018L71.0101 235.702C74.3044 244.761 75.9898 260.564 75.9898 283.24H77.9898ZM72.8985 235.044C69.7623 225.635 62.9548 214.604 52.5623 201.965L51.0174 203.235C61.3449 215.796 67.9774 226.605 71.0012 235.676L72.8985 235.044ZM52.3616 203.42L107.802 164.78L106.658 163.14L51.2181 201.78L52.3616 203.42ZM106.59 164.728C113.158 170.202 118.39 177.754 122.261 187.431L124.118 186.689C120.149 176.766 114.741 168.918 107.87 163.192L106.59 164.728ZM133.95 335.32V412.18H135.95V335.32H133.95ZM134.95 413.18H163.93V411.18H134.95V413.18ZM163.93 413.18C166.004 413.18 168.219 412.385 170.55 410.928C172.886 409.468 175.401 407.304 178.095 404.469L176.645 403.091C174.019 405.856 171.634 407.892 169.49 409.232C167.341 410.575 165.496 411.18 163.93 411.18V413.18ZM178.111 404.451C183.455 398.545 187.297 393.435 189.592 389.131L187.827 388.189C185.643 392.285 181.925 397.255 176.628 403.109L178.111 404.451ZM189.581 389.15C190.932 386.749 191.899 383.243 192.535 378.719C193.174 374.177 193.49 368.527 193.49 361.78H191.49C191.49 368.473 191.176 374.023 190.555 378.441C189.931 382.877 189.007 386.091 187.838 388.17L189.581 389.15ZM193.49 361.78C193.49 351.984 186.074 342.904 172.004 334.462L170.975 336.177C184.906 344.536 191.49 353.096 191.49 361.78H193.49ZM171.49 334.32H134.95V336.32H171.49V334.32ZM133.95 258.88V288.7H135.95V258.88H133.95ZM134.95 289.7H156.37V287.7H134.95V289.7ZM156.37 289.7C158.195 289.7 160.111 288.915 162.09 287.523C164.076 286.125 166.204 284.06 168.475 281.364L166.945 280.076C164.735 282.7 162.733 284.625 160.939 285.887C159.138 287.155 157.624 287.7 156.37 287.7V289.7ZM168.472 281.368C173.264 275.73 176.561 270.735 178.298 266.391L176.441 265.649C174.819 269.705 171.676 274.51 166.948 280.072L168.472 281.368ZM178.298 266.391C180.037 262.044 180.89 256.871 180.89 250.9H178.89C178.89 256.689 178.062 261.596 176.441 265.649L178.298 266.391ZM180.89 250.9C180.89 244.706 177.946 237.913 172.282 230.55L170.697 231.77C176.234 238.967 178.89 245.334 178.89 250.9H180.89ZM172.293 230.565C166.673 222.978 161.23 218.82 155.95 218.82V220.82C160.189 220.82 165.106 224.222 170.686 231.755L172.293 230.565ZM155.95 218.82C151.001 218.82 143.437 220.697 133.35 224.339L134.029 226.221C144.103 222.583 151.379 220.82 155.95 220.82V218.82ZM132.693 225.357C133.531 236.25 133.95 247.424 133.95 258.88H135.95C135.95 247.376 135.529 236.15 134.687 225.203L132.693 225.357ZM299.245 463H298.245V464H299.245V463ZM278.245 180.34L277.672 179.521L276.609 180.265L277.599 181.103L278.245 180.34ZM324.445 148L325.066 147.216L324.482 146.754L323.872 147.181L324.445 148ZM354.685 253.84H353.685V256.058L355.347 254.589L354.685 253.84ZM424.825 254.26L424.118 254.967L424.125 254.974L424.131 254.98L424.825 254.26ZM451.285 287.02L450.333 287.325L450.349 287.375L450.37 287.423L451.285 287.02ZM451.285 412.6L450.37 412.197L450.349 412.245L450.333 412.295L451.285 412.6ZM424.825 445.78L425.526 446.494L425.526 446.494L424.825 445.78ZM345.025 437.38L345.713 436.654L344.37 435.381L344.041 437.203L345.025 437.38ZM340.405 463V464H341.241L341.389 463.177L340.405 463ZM356.785 399.16L355.905 399.634L355.913 399.649L355.922 399.664L356.785 399.16ZM368.545 410.08L367.991 410.912L368.013 410.927L368.037 410.941L368.545 410.08ZM392.065 410.08L391.358 409.373L391.344 409.387L391.331 409.402L392.065 410.08ZM400.045 398.74L399.126 398.346L400.045 398.74ZM400.045 301.3L399.126 301.694L399.132 301.707L399.137 301.719L400.045 301.3ZM392.065 289.96L391.306 290.611L391.331 290.64L391.358 290.667L392.065 289.96ZM368.965 289.96L369.492 290.81L369.502 290.804L368.965 289.96ZM357.205 299.62L356.386 299.047L356.337 299.117L356.301 299.194L357.205 299.62ZM300.245 463V233.68H298.245V463H300.245ZM300.245 233.68C300.245 219.347 298.563 208.263 295.119 200.514L293.292 201.326C296.568 208.697 298.245 219.453 298.245 233.68H300.245ZM295.119 200.514C291.689 192.797 286.269 185.819 278.891 179.577L277.599 181.103C284.782 187.181 290.001 193.923 293.292 201.326L295.119 200.514ZM278.819 181.159L325.019 148.819L323.872 147.181L277.672 179.521L278.819 181.159ZM323.825 148.784C343.711 164.528 353.685 186.76 353.685 215.62H355.685C355.685 186.24 345.499 163.392 325.066 147.216L323.825 148.784ZM353.685 215.62V253.84H355.685V215.62H353.685ZM355.347 254.589C363.726 247.188 370.888 241.664 376.84 237.996C382.826 234.307 387.456 232.58 390.805 232.58V230.58C386.875 230.58 381.845 232.563 375.791 236.294C369.702 240.046 362.444 245.652 354.023 253.091L355.347 254.589ZM390.805 232.58C394.285 232.58 398.805 234.335 404.426 238.082C410.019 241.811 416.582 247.431 424.118 254.967L425.532 253.553C417.949 245.969 411.282 240.249 405.535 236.418C399.815 232.605 394.886 230.58 390.805 230.58V232.58ZM424.131 254.98C431.815 262.384 437.838 268.793 442.212 274.208C446.602 279.643 449.271 284.006 450.333 287.325L452.238 286.715C451.06 283.034 448.198 278.437 443.768 272.952C439.322 267.447 433.235 260.975 425.519 253.54L424.131 254.98ZM450.37 287.423C451.831 290.742 452.982 297.573 453.753 308.093C454.52 318.558 454.905 332.531 454.905 350.02H456.905C456.905 332.509 456.52 318.482 455.748 307.947C454.979 297.467 453.82 290.298 452.201 286.617L450.37 287.423ZM454.905 350.02C454.905 367.369 454.52 381.237 453.753 391.631C452.982 402.08 451.831 408.877 450.37 412.197L452.201 413.003C453.82 409.323 454.979 402.19 455.748 391.779C456.52 381.313 456.905 367.391 456.905 350.02H454.905ZM450.333 412.295C449.27 415.616 446.6 420.015 442.208 425.522C437.833 431.008 431.809 437.522 424.125 445.066L425.526 446.494C433.241 438.918 439.327 432.342 443.772 426.768C448.201 421.215 451.061 416.584 452.238 412.905L450.333 412.295ZM424.125 445.066C416.585 452.466 410.123 457.985 404.733 461.648C399.306 465.336 395.108 467.04 392.065 467.04V469.04C395.742 469.04 400.365 467.034 405.857 463.302C411.387 459.545 417.945 453.934 425.526 446.494L424.125 445.066ZM392.065 467.04C387.468 467.04 381.304 464.623 373.501 459.537C365.732 454.474 356.472 446.854 345.713 436.654L344.337 438.106C355.139 448.346 364.498 456.056 372.409 461.213C380.287 466.347 386.863 469.04 392.065 469.04V467.04ZM344.041 437.203L339.421 462.823L341.389 463.177L346.009 437.557L344.041 437.203ZM340.405 462H299.245V464H340.405V462ZM355.922 399.664C357.998 403.223 362.071 406.966 367.991 410.912L369.1 409.248C363.259 405.354 359.493 401.817 357.649 398.656L355.922 399.664ZM368.037 410.941C371.144 412.777 373.888 414.17 376.264 415.105C378.628 416.037 380.687 416.54 382.405 416.54V414.54C381.044 414.54 379.253 414.133 376.997 413.245C374.752 412.36 372.107 411.023 369.054 409.219L368.037 410.941ZM382.405 416.54C385.895 416.54 389.363 414.482 392.8 410.758L391.331 409.402C388.048 412.958 385.076 414.54 382.405 414.54V416.54ZM392.772 410.787C396.484 407.075 399.225 403.192 400.964 399.134L399.126 398.346C397.505 402.128 394.926 405.805 391.358 409.373L392.772 410.787ZM400.964 399.134C401.446 398.011 401.825 396.134 402.14 393.614C402.459 391.06 402.723 387.743 402.934 383.672C403.355 375.526 403.565 364.306 403.565 350.02H401.565C401.565 364.294 401.355 375.474 400.937 383.568C400.727 387.617 400.466 390.88 400.156 393.366C399.841 395.886 399.485 397.509 399.126 398.346L400.964 399.134ZM403.565 350.02C403.565 335.594 403.355 324.304 402.934 316.158C402.723 312.087 402.459 308.787 402.14 306.267C401.826 303.787 401.445 301.947 400.953 300.881L399.137 301.719C399.485 302.473 399.84 304.028 400.156 306.518C400.466 308.968 400.727 312.213 400.937 316.262C401.355 324.356 401.565 335.606 401.565 350.02H403.565ZM400.964 300.906C399.225 296.848 396.484 292.965 392.772 289.253L391.358 290.667C394.926 294.235 397.505 297.912 399.126 301.694L400.964 300.906ZM392.825 289.309C389.399 285.312 385.925 283.08 382.405 283.08V285.08C385.045 285.08 388.012 286.768 391.306 290.611L392.825 289.309ZM382.405 283.08C380.801 283.08 378.83 283.634 376.544 284.634C374.24 285.642 371.533 287.141 368.428 289.116L369.502 290.804C372.558 288.859 375.17 287.418 377.346 286.466C379.54 285.506 381.21 285.08 382.405 285.08V283.08ZM368.439 289.11C362.538 292.763 358.469 296.071 356.386 299.047L358.025 300.193C359.862 297.569 363.633 294.437 369.492 290.81L368.439 289.11ZM356.301 299.194C355.676 300.522 355.169 302.593 354.747 305.321C354.321 308.073 353.969 311.579 353.688 315.829C353.125 324.331 352.845 335.871 352.845 350.44H354.845C354.845 335.889 355.125 324.399 355.683 315.961C355.962 311.741 356.31 308.299 356.724 305.627C357.141 302.929 357.615 301.098 358.11 300.046L356.301 299.194ZM352.845 350.44C352.845 364.867 353.09 376.161 353.582 384.31C353.828 388.384 354.136 391.688 354.51 394.214C354.877 396.696 355.323 398.553 355.905 399.634L357.666 398.686C357.268 397.947 356.856 396.409 356.488 393.921C356.127 391.477 355.823 388.236 355.578 384.19C355.09 376.099 354.845 364.853 354.845 350.44H352.845Z" fill="#A59E00"/>
</g>
</g>
<path d="M84.9252 216.353C86.1862 272.467 88.4298 328.436 88.4298 384.572" stroke="white" stroke-width="9" stroke-linecap="round" stroke-linejoin="round"/>
<path d="M112.962 209.344C126.014 202.143 137.092 192.716 148.981 183.839C152.068 181.534 154.649 179.556 158.521 179.556" stroke="white" stroke-width="9" stroke-linecap="round" stroke-linejoin="round"/>
<path d="M316.226 190.069C335.463 249.919 321.483 311.462 321.483 372.306" stroke="white" stroke-width="9" stroke-linecap="round" stroke-linejoin="round"/>
</g>
<defs>
<filter id="filter0_d" x="-15.6667" y="-53.1308" width="216.251" height="318.97" filterUnits="userSpaceOnUse" color-interpolation-filters="sRGB">
<feFlood flood-opacity="0" result="BackgroundImageFix"/>
<feColorMatrix in="SourceAlpha" type="matrix" values="0 0 0 0 0 0 0 0 0 0 0 0 0 0 0 0 0 0 127 0"/>
<feOffset dy="4"/>
<feGaussianBlur stdDeviation="2"/>
<feColorMatrix type="matrix" values="0 0 0 0 0 0 0 0 0 0 0 0 0 0 0 0 0 0 0.25 0"/>
<feBlend mode="normal" in2="BackgroundImageFix" result="effect1_dropShadow"/>
<feBlend mode="normal" in="SourceGraphic" in2="effect1_dropShadow" result="shape"/>
</filter>
<filter id="filter1_d" x="378" y="305" width="145.685" height="338.343" filterUnits="userSpaceOnUse" color-interpolation-filters="sRGB">
<feFlood flood-opacity="0" result="BackgroundImageFix"/>
<feColorMatrix in="SourceAlpha" type="matrix" values="0 0 0 0 0 0 0 0 0 0 0 0 0 0 0 0 0 0 127 0"/>
<feOffset dy="4"/>
<feGaussianBlur stdDeviation="2"/>
<feColorMatrix type="matrix" values="0 0 0 0 0 0 0 0 0 0 0 0 0 0 0 0 0 0 0.25 0"/>
<feBlend mode="normal" in2="BackgroundImageFix" result="effect1_dropShadow"/>
<feBlend mode="normal" in="SourceGraphic" in2="effect1_dropShadow" result="shape"/>
</filter>
<filter id="filter2_d" x="-13.0001" y="178.616" width="118.585" height="309.901" filterUnits="userSpaceOnUse" color-interpolation-filters="sRGB">
<feFlood flood-opacity="0" result="BackgroundImageFix"/>
<feColorMatrix in="SourceAlpha" type="matrix" values="0 0 0 0 0 0 0 0 0 0 0 0 0 0 0 0 0 0 127 0"/>
<feOffset dy="4"/>
<feGaussianBlur stdDeviation="2"/>
<feColorMatrix type="matrix" values="0 0 0 0 0 0 0 0 0 0 0 0 0 0 0 0 0 0 0.25 0"/>
<feBlend mode="normal" in2="BackgroundImageFix" result="effect1_dropShadow"/>
<feBlend mode="normal" in="SourceGraphic" in2="effect1_dropShadow" result="shape"/>
</filter>
<filter id="filter3_d" x="372" y="329" width="179" height="156" filterUnits="userSpaceOnUse" color-interpolation-filters="sRGB">
<feFlood flood-opacity="0" result="BackgroundImageFix"/>
<feColorMatrix in="SourceAlpha" type="matrix" values="0 0 0 0 0 0 0 0 0 0 0 0 0 0 0 0 0 0 127 0"/>
<feOffset dy="4"/>
<feGaussianBlur stdDeviation="2"/>
<feColorMatrix type="matrix" values="0 0 0 0 0 0 0 0 0 0 0 0 0 0 0 0 0 0 0.25 0"/>
<feBlend mode="normal" in2="BackgroundImageFix" result="effect1_dropShadow"/>
<feBlend mode="normal" in="SourceGraphic" in2="effect1_dropShadow" result="shape"/>
</filter>
<filter id="filter4_d" x="345" y="84" width="194" height="52" filterUnits="userSpaceOnUse" color-interpolation-filters="sRGB">
<feFlood flood-opacity="0" result="BackgroundImageFix"/>
<feColorMatrix in="SourceAlpha" type="matrix" values="0 0 0 0 0 0 0 0 0 0 0 0 0 0 0 0 0 0 127 0"/>
<feOffset dy="4"/>
<feGaussianBlur stdDeviation="2"/>
<feColorMatrix type="matrix" values="0 0 0 0 0 0 0 0 0 0 0 0 0 0 0 0 0 0 0.25 0"/>
<feBlend mode="normal" in2="BackgroundImageFix" result="effect1_dropShadow"/>
<feBlend mode="normal" in="SourceGraphic" in2="effect1_dropShadow" result="shape"/>
</filter>
<filter id="filter5_d" x="404.191" y="-8.80896" width="122.78" height="122.78" filterUnits="userSpaceOnUse" color-interpolation-filters="sRGB">
<feFlood flood-opacity="0" result="BackgroundImageFix"/>
<feColorMatrix in="SourceAlpha" type="matrix" values="0 0 0 0 0 0 0 0 0 0 0 0 0 0 0 0 0 0 127 0"/>
<feOffset dy="4"/>
<feGaussianBlur stdDeviation="2"/>
<feColorMatrix type="matrix" values="0 0 0 0 0.8375 0 0 0 0 0.0697917 0 0 0 0 0.0697917 0 0 0 0.3 0"/>
<feBlend mode="normal" in2="BackgroundImageFix" result="effect1_dropShadow"/>
<feBlend mode="normal" in="SourceGraphic" in2="effect1_dropShadow" result="shape"/>
</filter>
<filter id="filter6_d" x="378" y="16.0001" width="69.3186" height="69.3186" filterUnits="userSpaceOnUse" color-interpolation-filters="sRGB">
<feFlood flood-opacity="0" result="BackgroundImageFix"/>
<feColorMatrix in="SourceAlpha" type="matrix" values="0 0 0 0 0 0 0 0 0 0 0 0 0 0 0 0 0 0 127 0"/>
<feOffset dy="4"/>
<feGaussianBlur stdDeviation="2"/>
<feColorMatrix type="matrix" values="0 0 0 0 0.8375 0 0 0 0 0.0697917 0 0 0 0 0.0697917 0 0 0 0.3 0"/>
<feBlend mode="normal" in2="BackgroundImageFix" result="effect1_dropShadow"/>
<feBlend mode="normal" in="SourceGraphic" in2="effect1_dropShadow" result="shape"/>
</filter>
<filter id="filter7_d" x="457" y="77" width="55.7383" height="55.7383" filterUnits="userSpaceOnUse" color-interpolation-filters="sRGB">
<feFlood flood-opacity="0" result="BackgroundImageFix"/>
<feColorMatrix in="SourceAlpha" type="matrix" values="0 0 0 0 0 0 0 0 0 0 0 0 0 0 0 0 0 0 127 0"/>
<feOffset dy="4"/>
<feGaussianBlur stdDeviation="2"/>
<feColorMatrix type="matrix" values="0 0 0 0 0.8375 0 0 0 0 0.0697917 0 0 0 0 0.0697917 0 0 0 0.3 0"/>
<feBlend mode="normal" in2="BackgroundImageFix" result="effect1_dropShadow"/>
<feBlend mode="normal" in="SourceGraphic" in2="effect1_dropShadow" result="shape"/>
</filter>
<filter id="filter8_d" x="5.02643" y="536.611" width="116.848" height="116.848" filterUnits="userSpaceOnUse" color-interpolation-filters="sRGB">
<feFlood flood-opacity="0" result="BackgroundImageFix"/>
<feColorMatrix in="SourceAlpha" type="matrix" values="0 0 0 0 0 0 0 0 0 0 0 0 0 0 0 0 0 0 127 0"/>
<feOffset dy="4"/>
<feGaussianBlur stdDeviation="2"/>
<feColorMatrix type="matrix" values="0 0 0 0 0.8375 0 0 0 0 0.0697917 0 0 0 0 0.0697917 0 0 0 0.3 0"/>
<feBlend mode="normal" in2="BackgroundImageFix" result="effect1_dropShadow"/>
<feBlend mode="normal" in="SourceGraphic" in2="effect1_dropShadow" result="shape"/>
</filter>
<filter id="filter9_d" x="80.7462" y="556.159" width="71.1131" height="71.1131" filterUnits="userSpaceOnUse" color-interpolation-filters="sRGB">
<feFlood flood-opacity="0" result="BackgroundImageFix"/>
<feColorMatrix in="SourceAlpha" type="matrix" values="0 0 0 0 0 0 0 0 0 0 0 0 0 0 0 0 0 0 127 0"/>
<feOffset dy="4"/>
<feGaussianBlur stdDeviation="2"/>
<feColorMatrix type="matrix" values="0 0 0 0 0.8375 0 0 0 0 0.0697917 0 0 0 0 0.0697917 0 0 0 0.3 0"/>
<feBlend mode="normal" in2="BackgroundImageFix" result="effect1_dropShadow"/>
<feBlend mode="normal" in="SourceGraphic" in2="effect1_dropShadow" result="shape"/>
</filter>
<filter id="filter10_d" x="10.869" y="516.692" width="56.4368" height="56.4368" filterUnits="userSpaceOnUse" color-interpolation-filters="sRGB">
<feFlood flood-opacity="0" result="BackgroundImageFix"/>
<feColorMatrix in="SourceAlpha" type="matrix" values="0 0 0 0 0 0 0 0 0 0 0 0 0 0 0 0 0 0 127 0"/>
<feOffset dy="4"/>
<feGaussianBlur stdDeviation="2"/>
<feColorMatrix type="matrix" values="0 0 0 0 0.8375 0 0 0 0 0.0697917 0 0 0 0 0.0697917 0 0 0 0.3 0"/>
<feBlend mode="normal" in2="BackgroundImageFix" result="effect1_dropShadow"/>
<feBlend mode="normal" in="SourceGraphic" in2="effect1_dropShadow" result="shape"/>
</filter>
<filter id="filter11_d" x="46.3297" y="146.754" width="414.576" height="330.286" filterUnits="userSpaceOnUse" color-interpolation-filters="sRGB">
<feFlood flood-opacity="0" result="BackgroundImageFix"/>
<feColorMatrix in="SourceAlpha" type="matrix" values="0 0 0 0 0 0 0 0 0 0 0 0 0 0 0 0 0 0 127 0"/>
<feOffset dy="4"/>
<feGaussianBlur stdDeviation="2"/>
<feColorMatrix type="matrix" values="0 0 0 0 0 0 0 0 0 0 0 0 0 0 0 0 0 0 0.25 0"/>
<feBlend mode="normal" in2="BackgroundImageFix" result="effect1_dropShadow"/>
<feBlend mode="normal" in="SourceGraphic" in2="effect1_dropShadow" result="shape"/>
</filter>
<filter id="filter12_d" x="46.3297" y="146.754" width="414.576" height="330.286" filterUnits="userSpaceOnUse" color-interpolation-filters="sRGB">
<feFlood flood-opacity="0" result="BackgroundImageFix"/>
<feColorMatrix in="SourceAlpha" type="matrix" values="0 0 0 0 0 0 0 0 0 0 0 0 0 0 0 0 0 0 127 0"/>
<feOffset dy="4"/>
<feGaussianBlur stdDeviation="2"/>
<feColorMatrix type="matrix" values="0 0 0 0 0 0 0 0 0 0 0 0 0 0 0 0 0 0 0.25 0"/>
<feBlend mode="normal" in2="BackgroundImageFix" result="effect1_dropShadow"/>
<feBlend mode="normal" in="SourceGraphic" in2="effect1_dropShadow" result="shape"/>
</filter>
<clipPath id="clip0">
<rect width="520" height="640" fill="white"/>
</clipPath>
<clipPath id="clip1">
<rect width="45.8748" height="45.8748" fill="white" transform="translate(382 36.0643) rotate(-25.9362)"/>
</clipPath>
<clipPath id="clip2">
<rect width="45.8748" height="45.8748" fill="white" transform="translate(147.859 595.227) rotate(148.39)"/>
</clipPath>
</defs>
</svg>
