<svg width="520" height="640" viewBox="0 0 520 640" fill="none" xmlns="http://www.w3.org/2000/svg">
<g clip-path="url(#clip0)">
<rect width="520" height="640" fill="white"/>
<rect x="-19" y="-16" width="560" height="678" fill="#F5F5F5"/>
<g opacity="0.5" filter="url(#filter0_d)">
<path d="M196.584 -24.9478C195.925 -19.3443 183.523 2.73377 139.193 46.2177C94.8616 89.7017 72.156 154.733 66.3446 181.813C55.2337 203.077 27.0654 247.989 3.27945 257.529C-20.5066 267.068 -10.6637 54.3972 -2.76899 -53.1308L196.584 -24.9478Z" fill="#44DF4A"/>
</g>
<g filter="url(#filter1_d)">
<path d="M519.685 305C505.185 323.667 470.685 371.8 448.685 415C421.185 469 412.773 530.445 397.069 550C370.569 583 379.685 612 419.185 625C450.785 635.4 499.351 636 519.685 635V305Z" fill="#A1EFEA"/>
</g>
<g opacity="0.5" filter="url(#filter2_d)">
<path d="M-7.31601 479.111C9.54228 483.516 48.4904 480.098 69.4166 431.18C95.5743 370.033 109.788 318.952 96.5587 278.026C85.9751 245.284 21.7764 198.11 -9.00001 178.616L-7.31601 479.111Z" fill="#595FDD"/>
</g>
<g opacity="0.5" filter="url(#filter3_d)">
<path d="M547 434.622C544.625 405.539 542.102 354.352 484.211 334.41C429.87 315.69 389.359 349.367 376 377.287C395.148 391.745 382.234 381.275 399.156 395.235C407.32 379.447 442.708 353.754 481.539 377.287C520.37 400.819 518.055 423.155 523.398 477L547 434.622Z" fill="#CE407B"/>
</g>
<g opacity="0.5" filter="url(#filter4_d)">
<path d="M349 128H535V84H349V128Z" fill="#FFA800"/>
</g>
<g filter="url(#filter5_d)">
<path d="M486.525 75.1847C484.677 77.1624 482.71 78.8867 480.614 80.3703C477.756 82.396 475.535 83.7077 473.973 84.3212C471.516 85.358 469.217 85.5213 467.075 84.8111C465.553 84.267 463.869 83.1762 462.042 81.5296C460.206 79.8841 458.387 78.7489 456.58 78.1027C454.688 77.4264 452.505 77.1307 450.018 77.2307C447.533 77.3356 445.613 77.1698 444.256 76.7322C442.192 76.0935 440.479 74.4719 439.127 71.8628C438.237 70.2732 437.313 67.7575 436.352 64.3226C435.318 60.6589 434.824 56.6484 434.867 52.3051C434.929 47.6107 435.656 43.3094 437.057 39.3919C438.66 34.9072 441.013 31.3819 444.113 28.8348C446.574 26.7744 449.338 25.4461 452.413 24.8452C455.494 24.242 458.517 24.4529 461.491 25.4603C463.111 26.0398 465.057 27.2995 467.336 29.2269C469.615 31.1542 471.127 32.259 471.863 32.5223C472.42 32.7213 474.501 32.8018 478.103 32.7743C481.494 32.7672 484.191 33.2267 486.206 34.146C491.681 36.6157 495.118 40.3479 496.502 45.3564C498.152 51.3267 498.406 53.4243 496.494 58.9271C494.966 63.3253 494.098 65.1342 492.196 67.9858C490.864 69.9819 490.404 70.524 488.819 72.5006C488.059 73.4487 487.296 74.3398 486.525 75.1847ZM491.783 19.7262C490.586 23.073 488.242 25.763 484.773 27.785C480.599 30.1704 476.329 30.8887 472.584 29.1959C472.678 28.7767 472.804 28.3451 472.963 27.9012C474.113 24.6848 476.737 21.7452 480.235 19.8209C481.984 18.841 483.986 18.218 486.237 17.9578C488.479 17.7104 490.466 17.841 492.196 18.36C492.081 18.8273 491.942 19.2823 491.783 19.7262Z" fill="#D13C3C"/>
</g>
<g clip-path="url(#clip1)" filter="url(#filter6_d)">
<path d="M429.857 48.5211C429.919 49.9024 429.845 51.2369 429.638 52.5323C429.356 54.2997 429.041 55.5794 428.707 56.369C428.207 57.6365 427.445 58.5343 426.42 59.0625C425.677 59.4236 424.677 59.6486 423.423 59.7271C422.167 59.8091 421.102 60.0676 420.22 60.4964C419.297 60.9454 418.409 61.6366 417.557 62.5804C416.707 63.5252 415.96 64.1667 415.315 64.5058C414.344 65.0312 413.14 65.0769 411.705 64.638C410.806 64.3948 409.557 63.8331 407.96 62.9564C406.253 62.0247 404.612 60.7714 403.042 59.2034C401.35 57.5033 400.04 55.7005 399.11 53.789C398.046 51.6008 397.6 49.4818 397.778 47.4397C397.905 45.8049 398.408 44.3212 399.287 42.9836C400.168 41.6434 401.326 40.6149 402.756 39.8894C403.547 39.5048 404.702 39.2448 406.22 39.1016C407.739 38.9584 408.682 38.8012 409.042 38.6265C409.313 38.4944 410.086 37.7634 411.364 36.4387C412.573 35.1979 413.705 34.3777 414.761 33.9704C417.619 32.8545 420.21 32.9334 422.533 34.2181C425.302 35.7496 426.159 36.4065 427.485 39.0712C428.544 41.2009 428.894 42.1642 429.255 43.8779C429.508 45.0775 429.542 45.439 429.697 46.7241C429.772 47.3404 429.824 47.9377 429.857 48.5211ZM411.489 26.7808C412.283 28.4138 412.428 30.2312 411.926 32.2201C411.305 34.5967 410.041 36.4122 408.085 37.1747C407.965 36.9904 407.853 36.79 407.748 36.5734C406.984 35.004 406.849 32.9953 407.396 31.0308C407.664 30.0421 408.152 29.0883 408.861 28.1736C409.572 27.2667 410.33 26.5877 411.138 26.1418C411.267 26.351 411.384 26.5642 411.489 26.7808Z" fill="#D13C3C"/>
</g>
<g filter="url(#filter7_d)">
<path d="M499.126 110.665C498.526 111.91 497.828 113.05 497.031 114.092C495.944 115.515 495.06 116.492 494.391 117.028C493.35 117.907 492.254 118.336 491.101 118.315C490.276 118.281 489.289 118.005 488.147 117.479C487.002 116.955 485.942 116.678 484.962 116.637C483.937 116.594 482.827 116.782 481.629 117.208C480.433 117.637 479.471 117.848 478.743 117.84C477.639 117.842 476.557 117.311 475.501 116.244C474.826 115.604 473.993 114.517 473.002 112.988C471.941 111.358 471.091 109.476 470.453 107.351C469.769 105.052 469.471 102.843 469.559 100.719C469.66 98.2883 470.272 96.2112 471.398 94.4979C472.285 93.119 473.431 92.0513 474.84 91.291C476.251 90.5288 477.758 90.1724 479.362 90.2122C480.24 90.2487 481.381 90.5677 482.785 91.1617C484.19 91.7556 485.095 92.0649 485.494 92.0815C485.796 92.094 486.823 91.8171 488.576 91.2567C490.229 90.738 491.614 90.5525 492.737 90.6948C495.783 91.068 498.026 92.3664 499.462 94.5993C501.174 97.261 501.616 98.2456 501.52 101.22C501.442 103.598 501.294 104.612 500.799 106.292C500.453 107.468 500.311 107.802 499.838 109.007C499.611 109.585 499.374 110.136 499.126 110.665ZM493.267 82.8138C493.192 84.6281 492.457 86.2965 491.072 87.8096C489.398 89.6073 487.424 90.6062 485.34 90.3495C485.323 90.1306 485.319 89.9009 485.329 89.6603C485.401 87.9166 486.235 86.084 487.648 84.6142C488.353 83.8705 489.235 83.2624 490.293 82.7937C491.349 82.3324 492.339 82.0942 493.261 82.0847C493.276 82.3302 493.277 82.5732 493.267 82.8138Z" fill="#D13C3C"/>
</g>
<g filter="url(#filter8_d)">
<path d="M39.9791 566.632C41.6219 564.482 43.4092 562.571 45.3482 560.888C47.9918 558.59 50.0725 557.065 51.5665 556.3C53.9086 555.025 56.1805 554.635 58.3822 555.13C59.9505 555.521 61.7341 556.44 63.715 557.898C65.7041 559.354 67.6266 560.304 69.4889 560.768C71.4383 561.254 73.6397 561.333 76.1049 560.987C78.5674 560.637 80.4938 560.612 81.8878 560.914C84.0051 561.345 85.8698 562.789 87.4729 565.252C88.5156 566.746 89.6841 569.158 90.9801 572.481C92.3716 576.024 93.2589 579.967 93.6455 584.293C94.0486 588.97 93.7501 593.322 92.7436 597.359C91.5914 601.98 89.5984 605.721 86.7655 608.562C84.5202 610.856 81.9015 612.451 78.9004 613.353C75.8947 614.258 72.8649 614.347 69.8065 613.638C68.1366 613.222 66.0761 612.161 63.6178 610.468C61.1594 608.775 59.5454 607.825 58.7867 607.636C58.2132 607.493 56.1344 607.619 52.5531 608.002C49.1786 608.345 46.4499 608.154 44.3533 607.439C38.6618 605.522 34.8721 602.148 32.9997 597.301C30.7678 591.523 30.3077 589.461 31.6661 583.796C32.7519 579.268 33.4365 577.382 35.0478 574.357C36.1757 572.239 36.5793 571.654 37.961 569.53C38.6237 568.512 39.2955 567.549 39.9791 566.632ZM40.2296 622.339C41.0894 618.89 43.1565 615.982 46.408 613.627C50.3263 610.84 54.5042 609.703 58.3987 611.018C58.3463 611.444 58.2631 611.886 58.1491 612.343C57.3227 615.658 55.0018 618.843 51.712 621.103C50.0686 622.251 48.1372 623.069 45.9234 623.55C43.7169 624.018 41.7261 624.085 39.9537 623.739C40.0224 623.263 40.1155 622.796 40.2296 622.339Z" fill="#D13C3C"/>
</g>
<g clip-path="url(#clip2)" filter="url(#filter9_d)">
<path d="M99.0053 587.563C98.8073 586.195 98.7486 584.859 98.827 583.55C98.9327 581.763 99.1196 580.459 99.3743 579.64C99.746 578.329 100.416 577.36 101.383 576.733C102.086 576.301 103.059 575.978 104.3 575.776C105.542 575.57 106.576 575.208 107.411 574.694C108.285 574.156 109.101 573.38 109.856 572.356C110.608 571.332 111.287 570.62 111.895 570.219C112.81 569.6 114.003 569.436 115.475 569.73C116.393 569.884 117.692 570.319 119.368 571.034C121.159 571.792 122.915 572.877 124.633 574.282C126.485 575.806 127.967 577.471 129.081 579.281C130.356 581.353 131.01 583.418 131.034 585.467C131.069 587.107 130.716 588.633 129.973 590.051C129.229 591.472 128.178 592.61 126.827 593.473C126.078 593.934 124.954 594.307 123.457 594.599C121.961 594.892 121.037 595.142 120.697 595.351C120.44 595.509 119.743 596.313 118.603 597.758C117.522 599.112 116.477 600.04 115.466 600.55C112.733 601.943 110.146 602.121 107.708 601.072C104.8 599.822 103.883 599.253 102.3 596.732C101.035 594.717 100.592 593.794 100.063 592.124C99.6928 590.955 99.6235 590.599 99.342 589.335C99.207 588.729 99.0958 588.14 99.0053 587.563ZM119.432 607.381C118.481 605.834 118.158 604.04 118.46 602.011C118.843 599.585 119.921 597.653 121.793 596.701C121.93 596.873 122.061 597.061 122.188 597.266C123.102 598.753 123.435 600.738 123.085 602.747C122.917 603.757 122.525 604.755 121.91 605.735C121.292 606.708 120.605 607.458 119.845 607.982C119.696 607.787 119.559 607.586 119.432 607.381Z" fill="#D13C3C"/>
</g>
<g filter="url(#filter10_d)">
<path d="M23.9316 532.572C24.4062 531.273 24.9879 530.07 25.678 528.954C26.6185 527.431 27.4018 526.372 28.0143 525.771C28.9632 524.794 30.0122 524.259 31.1614 524.166C31.9858 524.118 32.9954 524.296 34.1831 524.706C35.3745 525.114 36.4566 525.285 37.4355 525.229C38.4603 525.17 39.5461 524.874 40.6961 524.331C41.8441 523.786 42.7801 523.481 43.5058 523.416C44.6041 523.305 45.7331 523.727 46.8892 524.684C47.6247 525.255 48.5611 526.254 49.698 527.678C50.915 529.195 51.9466 530.983 52.7924 533.035C53.6995 535.255 54.215 537.423 54.3372 539.545C54.4771 541.975 54.0731 544.102 53.1228 545.918C52.3759 547.378 51.3408 548.554 50.0139 549.45C48.6852 550.348 47.2208 550.851 45.6213 550.97C44.7434 551.021 43.5771 550.816 42.1209 550.364C40.6646 549.912 39.733 549.694 39.3342 549.717C39.0327 549.734 38.0377 550.111 36.349 550.842C34.755 551.522 33.395 551.843 32.2636 551.812C29.1962 551.742 26.8351 550.672 25.1855 548.592C23.2191 546.112 22.6814 545.176 22.4836 542.207C22.3255 539.833 22.373 538.809 22.6994 537.089C22.9278 535.884 23.0359 535.538 23.3873 534.292C23.5558 533.694 23.7374 533.123 23.9316 532.572ZM32.5154 559.707C32.411 557.894 32.9774 556.162 34.2058 554.519C35.6939 552.565 37.5592 551.375 39.6585 551.425C39.6978 551.641 39.7243 551.869 39.7382 552.109C39.8385 553.852 39.1901 555.758 37.9288 557.36C37.3014 558.17 36.4836 558.862 35.4768 559.433C34.4716 559.997 33.5106 560.332 32.5935 560.432C32.5546 560.189 32.5292 559.948 32.5154 559.707Z" fill="#D13C3C"/>
</g>
<g filter="url(#filter11_d)">
<g filter="url(#filter12_d)">
<path d="M140.743 185.8C159.223 171.24 173.223 163.96 182.743 163.96C192.263 163.96 206.963 173.2 226.843 191.68C247.003 209.88 259.463 224.72 264.223 236.2C267.303 243.48 268.843 261.82 268.843 291.22V340.78C268.843 370.18 267.303 388.52 264.223 395.8C259.183 406.72 247.003 420.72 227.683 437.8C208.363 454.6 193.103 463 181.903 463H94.9625V283.24C94.9625 260.56 93.2825 244.6 89.9225 235.36C86.8425 226.12 80.1225 215.2 69.7625 202.6L125.203 163.96C131.083 168.44 136.263 175.72 140.743 185.8ZM181.903 224.02C173.783 224.02 163.703 226.68 151.663 232C152.503 237.88 152.923 246.84 152.923 258.88V412.18H181.903C185.823 412.18 190.443 409.38 195.763 403.78C201.363 397.9 205.283 392.44 207.523 387.4C209.763 382.08 210.883 367.94 210.883 344.98V291.22C210.883 268.26 209.763 254.26 207.523 249.22C205.283 243.9 201.363 238.44 195.763 232.84C190.443 226.96 185.823 224.02 181.903 224.02ZM307.138 287.02C309.378 280.02 318.058 269.1 333.178 254.26C348.578 239.14 359.918 231.58 367.198 231.58C374.478 231.58 386.938 239.14 404.578 254.26V233.68C404.578 219.4 402.898 208.48 399.538 200.92C396.178 193.36 390.858 186.5 383.578 180.34L429.778 148C449.938 163.96 460.018 186.5 460.018 215.62V463H417.178L412.138 438.22C391.698 458.1 376.438 468.04 366.358 468.04C359.638 468.04 348.578 460.62 333.178 445.78C318.058 430.66 309.378 419.6 307.138 412.6C304.058 405.6 302.518 384.74 302.518 350.02C302.518 315.02 304.058 294.02 307.138 287.02ZM401.638 300.88C399.678 297.24 395.618 293.6 389.458 289.96C383.578 286.04 379.098 284.08 376.018 284.08C372.938 284.08 369.578 285.9 365.938 289.54C362.578 293.18 360.058 296.96 358.378 300.88C356.698 304.8 355.858 321.18 355.858 350.02C355.858 378.58 356.698 394.82 358.378 398.74C360.058 402.38 362.578 406.16 365.938 410.08C369.578 413.72 372.798 415.54 375.598 415.54C378.678 415.54 383.158 413.72 389.038 410.08C395.198 406.16 399.258 402.8 401.218 400C402.898 396.08 404.018 384.74 404.578 365.98V350.44C404.578 320.76 403.598 304.24 401.638 300.88Z" fill="#91ED48"/>
<path d="M140.743 185.8L139.829 186.206L140.351 187.381L141.361 186.585L140.743 185.8ZM226.842 191.68L226.162 192.412L226.167 192.417L226.172 192.422L226.842 191.68ZM264.223 236.2L263.299 236.583L263.302 236.59L264.223 236.2ZM264.223 395.8L265.13 396.219L265.137 396.204L265.143 396.19L264.223 395.8ZM227.683 437.8L228.339 438.555L228.345 438.549L227.683 437.8ZM94.9625 463H93.9625V464H94.9625V463ZM89.9225 235.36L88.9738 235.676L88.9781 235.689L88.9827 235.702L89.9225 235.36ZM69.7625 202.6L69.1907 201.78L68.3024 202.399L68.9901 203.235L69.7625 202.6ZM125.202 163.96L125.809 163.165L125.229 162.723L124.631 163.14L125.202 163.96ZM151.663 232L151.258 231.085L150.565 231.391L150.673 232.141L151.663 232ZM152.923 412.18H151.923V413.18H152.923V412.18ZM195.762 403.78L195.038 403.09L195.038 403.091L195.762 403.78ZM207.523 387.4L208.436 387.806L208.44 387.797L208.444 387.788L207.523 387.4ZM207.523 249.22L206.601 249.608L206.605 249.617L206.609 249.626L207.523 249.22ZM195.762 232.84L195.021 233.511L195.038 233.529L195.055 233.547L195.762 232.84ZM141.361 186.585C150.574 179.327 158.639 173.908 165.564 170.307C172.504 166.698 178.216 164.96 182.743 164.96V162.96C177.749 162.96 171.701 164.862 164.641 168.533C157.566 172.212 149.391 177.713 140.124 185.014L141.361 186.585ZM182.743 164.96C187.215 164.96 193.072 167.146 200.375 171.737C207.651 176.31 216.245 183.194 226.162 192.412L227.523 190.948C217.56 181.686 208.864 174.71 201.44 170.043C194.043 165.394 187.79 162.96 182.743 162.96V164.96ZM226.172 192.422C246.323 210.614 258.631 225.326 263.299 236.583L265.146 235.817C260.294 224.114 247.682 209.146 227.513 190.938L226.172 192.422ZM263.302 236.59C264.774 240.069 265.921 246.331 266.691 255.499C267.458 264.63 267.843 276.534 267.843 291.22H269.843C269.843 276.506 269.457 264.54 268.684 255.331C267.914 246.159 266.751 239.611 265.143 235.81L263.302 236.59ZM267.843 291.22V340.78H269.843V291.22H267.843ZM267.843 340.78C267.843 355.466 267.458 367.37 266.691 376.501C265.921 385.669 264.774 391.931 263.302 395.41L265.143 396.19C266.751 392.389 267.914 385.841 268.684 376.669C269.457 367.46 269.843 355.494 269.843 340.78H267.843ZM263.315 395.381C258.368 406.098 246.328 419.981 227.02 437.051L228.345 438.549C247.677 421.459 259.997 407.342 265.13 396.219L263.315 395.381ZM227.026 437.045C217.397 445.418 208.812 451.67 201.265 455.824C193.708 459.984 187.265 462 181.903 462V464C187.74 464 194.527 461.816 202.23 457.576C209.943 453.33 218.648 446.982 228.339 438.555L227.026 437.045ZM181.903 462H94.9625V464H181.903V462ZM95.9625 463V283.24H93.9625V463H95.9625ZM95.9625 283.24C95.9625 260.556 94.2879 244.439 90.8623 235.018L88.9827 235.702C92.2771 244.761 93.9625 260.564 93.9625 283.24H95.9625ZM90.8712 235.044C87.735 225.635 80.9274 214.604 70.5349 201.965L68.9901 203.235C79.3176 215.796 85.95 226.605 88.9738 235.676L90.8712 235.044ZM70.3343 203.42L125.774 164.78L124.631 163.14L69.1907 201.78L70.3343 203.42ZM124.596 164.755C130.293 169.096 135.386 176.21 139.829 186.206L141.656 185.394C137.139 175.23 131.872 167.784 125.809 163.165L124.596 164.755ZM181.903 223.02C173.583 223.02 163.356 225.74 151.258 231.085L152.067 232.915C164.049 227.62 173.982 225.02 181.903 225.02V223.02ZM150.673 232.141C151.502 237.948 151.923 246.85 151.923 258.88H153.923C153.923 246.83 153.503 237.812 152.652 231.859L150.673 232.141ZM151.923 258.88V412.18H153.923V258.88H151.923ZM152.923 413.18H181.903V411.18H152.923V413.18ZM181.903 413.18C186.265 413.18 191.14 410.098 196.488 404.469L195.038 403.091C189.745 408.662 185.38 411.18 181.903 411.18V413.18ZM196.487 404.47C202.132 398.542 206.133 392.988 208.436 387.806L206.609 386.994C204.432 391.892 200.593 397.258 195.038 403.09L196.487 404.47ZM208.444 387.788C209.634 384.963 210.48 379.95 211.039 372.884C211.602 365.777 211.883 356.472 211.883 344.98H209.883C209.883 356.448 209.603 365.693 209.046 372.726C208.485 379.8 207.651 384.517 206.601 387.012L208.444 387.788ZM211.883 344.98V291.22H209.883V344.98H211.883ZM211.883 291.22C211.883 279.728 211.602 270.458 211.039 263.42C210.48 256.43 209.634 251.509 208.436 248.814L206.609 249.626C207.651 251.971 208.485 256.57 209.046 263.58C209.603 270.542 209.883 279.752 209.883 291.22H211.883ZM208.444 248.832C206.139 243.357 202.129 237.793 196.47 232.133L195.055 233.547C200.596 239.087 204.426 244.443 206.601 249.608L208.444 248.832ZM196.504 232.169C191.164 226.267 186.285 223.02 181.903 223.02V225.02C185.36 225.02 189.721 227.653 195.021 233.511L196.504 232.169ZM307.138 287.02L308.053 287.423L308.074 287.375L308.09 287.325L307.138 287.02ZM333.178 254.26L333.878 254.974L333.879 254.974L333.178 254.26ZM404.578 254.26L403.927 255.019L405.578 256.434V254.26H404.578ZM383.578 180.34L383.005 179.521L381.941 180.265L382.932 181.103L383.578 180.34ZM429.778 148L430.399 147.216L429.815 146.754L429.204 147.181L429.778 148ZM460.018 463V464H461.018V463H460.018ZM417.178 463L416.198 463.199L416.361 464H417.178V463ZM412.138 438.22L413.118 438.021L412.753 436.227L411.441 437.503L412.138 438.22ZM333.178 445.78L332.471 446.487L332.477 446.494L332.484 446.5L333.178 445.78ZM307.138 412.6L308.09 412.295L308.074 412.245L308.053 412.197L307.138 412.6ZM401.638 300.88L400.758 301.354L400.766 301.369L400.774 301.384L401.638 300.88ZM389.458 289.96L388.903 290.792L388.926 290.807L388.949 290.821L389.458 289.96ZM365.938 289.54L365.231 288.833L365.217 288.847L365.203 288.862L365.938 289.54ZM358.378 300.88L357.459 300.486L358.378 300.88ZM358.378 398.74L357.459 399.134L357.464 399.147L357.47 399.159L358.378 398.74ZM365.938 410.08L365.179 410.731L365.204 410.76L365.231 410.787L365.938 410.08ZM389.038 410.08L389.564 410.93L389.575 410.924L389.038 410.08ZM401.218 400L402.037 400.573L402.096 400.489L402.137 400.394L401.218 400ZM404.578 365.98L405.578 366.01L405.578 365.995V365.98H404.578ZM308.09 287.325C309.154 284.002 311.791 279.637 316.111 274.202C320.416 268.786 326.334 262.378 333.878 254.974L332.478 253.546C324.902 260.982 318.92 267.454 314.545 272.958C310.185 278.443 307.362 283.038 306.186 286.715L308.09 287.325ZM333.879 254.974C341.556 247.435 348.191 241.813 353.788 238.082C359.416 234.33 363.864 232.58 367.198 232.58V230.58C363.252 230.58 358.39 232.61 352.678 236.418C346.935 240.247 340.2 245.965 332.477 253.546L333.879 254.974ZM367.198 232.58C370.548 232.58 375.282 234.342 381.484 238.105C387.649 241.845 395.127 247.477 403.927 255.019L405.229 253.501C396.389 245.923 388.817 240.215 382.522 236.395C376.264 232.598 371.128 230.58 367.198 230.58V232.58ZM405.578 254.26V233.68H403.578V254.26H405.578ZM405.578 233.68C405.578 219.347 403.896 208.263 400.452 200.514L398.624 201.326C401.9 208.697 403.578 219.453 403.578 233.68H405.578ZM400.452 200.514C397.022 192.797 391.601 185.819 384.224 179.577L382.932 181.103C390.115 187.181 395.334 193.923 398.624 201.326L400.452 200.514ZM384.151 181.159L430.351 148.819L429.204 147.181L383.005 179.521L384.151 181.159ZM429.157 148.784C449.044 164.528 459.018 186.76 459.018 215.62H461.018C461.018 186.24 450.832 163.392 430.399 147.216L429.157 148.784ZM459.018 215.62V463H461.018V215.62H459.018ZM460.018 462H417.178V464H460.018V462ZM418.158 462.801L413.118 438.021L411.158 438.419L416.198 463.199L418.158 462.801ZM411.441 437.503C401.244 447.42 392.371 454.826 384.817 459.747C377.236 464.685 371.103 467.04 366.358 467.04V469.04C371.693 469.04 378.23 466.425 385.909 461.423C393.615 456.404 402.592 448.9 412.835 438.937L411.441 437.503ZM366.358 467.04C363.313 467.04 359.08 465.334 353.58 461.645C348.119 457.981 341.552 452.46 333.872 445.06L332.484 446.5C340.204 453.94 346.867 459.549 352.466 463.305C358.026 467.036 362.683 469.04 366.358 469.04V467.04ZM333.885 445.073C326.34 437.528 320.421 431.014 316.115 425.528C311.794 420.022 309.155 415.621 308.09 412.295L306.186 412.905C307.361 416.579 310.182 421.208 314.541 426.762C318.915 432.336 324.896 438.912 332.471 446.487L333.885 445.073ZM308.053 412.197C306.592 408.877 305.442 402.08 304.67 391.631C303.903 381.237 303.518 367.369 303.518 350.02H301.518C301.518 367.391 301.903 381.313 302.676 391.779C303.444 402.19 304.603 409.323 306.223 413.003L308.053 412.197ZM303.518 350.02C303.518 332.531 303.903 318.558 304.67 308.093C305.442 297.573 306.593 290.742 308.053 287.423L306.223 286.617C304.603 290.298 303.444 297.467 302.676 307.947C301.903 318.482 301.518 332.509 301.518 350.02H303.518ZM402.518 300.406C400.43 296.527 396.183 292.772 389.967 289.099L388.949 290.821C395.053 294.428 398.926 297.953 400.758 301.354L402.518 300.406ZM390.013 289.128C387.043 287.148 384.4 285.645 382.089 284.634C379.788 283.627 377.753 283.08 376.018 283.08V285.08C377.363 285.08 379.108 285.513 381.287 286.466C383.456 287.415 385.993 288.852 388.903 290.792L390.013 289.128ZM376.018 283.08C372.542 283.08 368.94 285.124 365.231 288.833L366.645 290.247C370.216 286.676 373.334 285.08 376.018 285.08V283.08ZM365.203 288.862C361.778 292.572 359.19 296.446 357.459 300.486L359.297 301.274C360.926 297.474 363.378 293.788 366.673 290.218L365.203 288.862ZM357.459 300.486C356.977 301.61 356.598 303.496 356.283 306.033C355.964 308.604 355.7 311.947 355.489 316.054C355.068 324.269 354.858 335.594 354.858 350.02H356.858C356.858 335.606 357.068 324.321 357.487 316.156C357.696 312.073 357.957 308.783 358.268 306.279C358.583 303.741 358.939 302.11 359.297 301.274L357.459 300.486ZM354.858 350.02C354.858 364.306 355.068 375.526 355.489 383.672C355.7 387.743 355.964 391.06 356.283 393.614C356.598 396.134 356.978 398.011 357.459 399.134L359.297 398.346C358.938 397.509 358.583 395.886 358.268 393.366C357.957 390.88 357.696 387.617 357.487 383.568C357.068 375.474 356.858 364.294 356.858 350.02H354.858ZM357.47 399.159C359.198 402.903 361.775 406.76 365.179 410.731L366.697 409.429C363.381 405.56 360.918 401.857 359.286 398.321L357.47 399.159ZM365.231 410.787C368.916 414.472 372.383 416.54 375.598 416.54V414.54C373.213 414.54 370.24 412.968 366.645 409.373L365.231 410.787ZM375.598 416.54C377.319 416.54 379.345 416.035 381.644 415.101C383.953 414.163 386.595 412.768 389.564 410.93L388.512 409.23C385.601 411.032 383.063 412.367 380.892 413.249C378.711 414.135 376.957 414.54 375.598 414.54V416.54ZM389.575 410.924C395.748 406.995 399.956 403.547 402.037 400.573L400.399 399.427C398.56 402.053 394.648 405.325 388.501 409.236L389.575 410.924ZM402.137 400.394C403.046 398.273 403.754 394.31 404.313 388.653C404.876 382.951 405.297 375.4 405.578 366.01L403.578 365.95C403.299 375.32 402.88 382.819 402.323 388.457C401.761 394.14 401.07 397.807 400.299 399.606L402.137 400.394ZM405.578 365.98V350.44H403.578V365.98H405.578ZM405.578 350.44C405.578 335.593 405.333 324.02 404.841 315.731C404.595 311.588 404.287 308.247 403.913 305.721C403.548 303.249 403.101 301.404 402.502 300.376L400.774 301.384C401.155 302.036 401.566 303.516 401.935 306.014C402.296 308.458 402.6 311.732 402.845 315.849C403.333 324.08 403.578 335.607 403.578 350.44H405.578Z" fill="#2BA500"/>
</g>
</g>
<path d="M99.6376 207.592C105.644 267.657 106.387 328.106 113.656 388.076" stroke="white" stroke-width="9" stroke-linecap="round" stroke-linejoin="round"/>
<path d="M143.444 202.335C163.973 190.986 186.174 181.308 210.031 181.308" stroke="white" stroke-width="9" stroke-linecap="round" stroke-linejoin="round"/>
<path d="M353.718 267.169C341.896 281.033 332.504 293.665 327.239 311.463C322.879 326.201 325.681 335.333 325.681 349.526" stroke="white" stroke-width="9" stroke-linecap="round" stroke-linejoin="round"/>
<path d="M330.938 381.067C331.776 398.382 341.798 412.832 348.461 428.379" stroke="white" stroke-width="9" stroke-linecap="round" stroke-linejoin="round"/>
</g>
<defs>
<filter id="filter0_d" x="-20" y="-57" width="226.014" height="323.068" filterUnits="userSpaceOnUse" color-interpolation-filters="sRGB">
<feFlood flood-opacity="0" result="BackgroundImageFix"/>
<feColorMatrix in="SourceAlpha" type="matrix" values="0 0 0 0 0 0 0 0 0 0 0 0 0 0 0 0 0 0 127 0"/>
<feOffset dy="4"/>
<feGaussianBlur stdDeviation="2"/>
<feColorMatrix type="matrix" values="0 0 0 0 0 0 0 0 0 0 0 0 0 0 0 0 0 0 0.25 0"/>
<feBlend mode="normal" in2="BackgroundImageFix" result="effect1_dropShadow"/>
<feBlend mode="normal" in="SourceGraphic" in2="effect1_dropShadow" result="shape"/>
</filter>
<filter id="filter1_d" x="378" y="305" width="145.685" height="338.343" filterUnits="userSpaceOnUse" color-interpolation-filters="sRGB">
<feFlood flood-opacity="0" result="BackgroundImageFix"/>
<feColorMatrix in="SourceAlpha" type="matrix" values="0 0 0 0 0 0 0 0 0 0 0 0 0 0 0 0 0 0 127 0"/>
<feOffset dy="4"/>
<feGaussianBlur stdDeviation="2"/>
<feColorMatrix type="matrix" values="0 0 0 0 0 0 0 0 0 0 0 0 0 0 0 0 0 0 0.25 0"/>
<feBlend mode="normal" in2="BackgroundImageFix" result="effect1_dropShadow"/>
<feBlend mode="normal" in="SourceGraphic" in2="effect1_dropShadow" result="shape"/>
</filter>
<filter id="filter2_d" x="-13" y="178" width="119.528" height="310.584" filterUnits="userSpaceOnUse" color-interpolation-filters="sRGB">
<feFlood flood-opacity="0" result="BackgroundImageFix"/>
<feColorMatrix in="SourceAlpha" type="matrix" values="0 0 0 0 0 0 0 0 0 0 0 0 0 0 0 0 0 0 127 0"/>
<feOffset dy="4"/>
<feGaussianBlur stdDeviation="2"/>
<feColorMatrix type="matrix" values="0 0 0 0 0 0 0 0 0 0 0 0 0 0 0 0 0 0 0.25 0"/>
<feBlend mode="normal" in2="BackgroundImageFix" result="effect1_dropShadow"/>
<feBlend mode="normal" in="SourceGraphic" in2="effect1_dropShadow" result="shape"/>
</filter>
<filter id="filter3_d" x="372" y="329" width="179" height="156" filterUnits="userSpaceOnUse" color-interpolation-filters="sRGB">
<feFlood flood-opacity="0" result="BackgroundImageFix"/>
<feColorMatrix in="SourceAlpha" type="matrix" values="0 0 0 0 0 0 0 0 0 0 0 0 0 0 0 0 0 0 127 0"/>
<feOffset dy="4"/>
<feGaussianBlur stdDeviation="2"/>
<feColorMatrix type="matrix" values="0 0 0 0 0 0 0 0 0 0 0 0 0 0 0 0 0 0 0.25 0"/>
<feBlend mode="normal" in2="BackgroundImageFix" result="effect1_dropShadow"/>
<feBlend mode="normal" in="SourceGraphic" in2="effect1_dropShadow" result="shape"/>
</filter>
<filter id="filter4_d" x="345" y="84" width="194" height="52" filterUnits="userSpaceOnUse" color-interpolation-filters="sRGB">
<feFlood flood-opacity="0" result="BackgroundImageFix"/>
<feColorMatrix in="SourceAlpha" type="matrix" values="0 0 0 0 0 0 0 0 0 0 0 0 0 0 0 0 0 0 127 0"/>
<feOffset dy="4"/>
<feGaussianBlur stdDeviation="2"/>
<feColorMatrix type="matrix" values="0 0 0 0 0 0 0 0 0 0 0 0 0 0 0 0 0 0 0.25 0"/>
<feBlend mode="normal" in2="BackgroundImageFix" result="effect1_dropShadow"/>
<feBlend mode="normal" in="SourceGraphic" in2="effect1_dropShadow" result="shape"/>
</filter>
<filter id="filter5_d" x="404.191" y="-8.80896" width="122.78" height="122.78" filterUnits="userSpaceOnUse" color-interpolation-filters="sRGB">
<feFlood flood-opacity="0" result="BackgroundImageFix"/>
<feColorMatrix in="SourceAlpha" type="matrix" values="0 0 0 0 0 0 0 0 0 0 0 0 0 0 0 0 0 0 127 0"/>
<feOffset dy="4"/>
<feGaussianBlur stdDeviation="2"/>
<feColorMatrix type="matrix" values="0 0 0 0 0.8375 0 0 0 0 0.0697917 0 0 0 0 0.0697917 0 0 0 0.3 0"/>
<feBlend mode="normal" in2="BackgroundImageFix" result="effect1_dropShadow"/>
<feBlend mode="normal" in="SourceGraphic" in2="effect1_dropShadow" result="shape"/>
</filter>
<filter id="filter6_d" x="378" y="16.0001" width="69.3186" height="69.3186" filterUnits="userSpaceOnUse" color-interpolation-filters="sRGB">
<feFlood flood-opacity="0" result="BackgroundImageFix"/>
<feColorMatrix in="SourceAlpha" type="matrix" values="0 0 0 0 0 0 0 0 0 0 0 0 0 0 0 0 0 0 127 0"/>
<feOffset dy="4"/>
<feGaussianBlur stdDeviation="2"/>
<feColorMatrix type="matrix" values="0 0 0 0 0.8375 0 0 0 0 0.0697917 0 0 0 0 0.0697917 0 0 0 0.3 0"/>
<feBlend mode="normal" in2="BackgroundImageFix" result="effect1_dropShadow"/>
<feBlend mode="normal" in="SourceGraphic" in2="effect1_dropShadow" result="shape"/>
</filter>
<filter id="filter7_d" x="457" y="77" width="55.7383" height="55.7383" filterUnits="userSpaceOnUse" color-interpolation-filters="sRGB">
<feFlood flood-opacity="0" result="BackgroundImageFix"/>
<feColorMatrix in="SourceAlpha" type="matrix" values="0 0 0 0 0 0 0 0 0 0 0 0 0 0 0 0 0 0 127 0"/>
<feOffset dy="4"/>
<feGaussianBlur stdDeviation="2"/>
<feColorMatrix type="matrix" values="0 0 0 0 0.8375 0 0 0 0 0.0697917 0 0 0 0 0.0697917 0 0 0 0.3 0"/>
<feBlend mode="normal" in2="BackgroundImageFix" result="effect1_dropShadow"/>
<feBlend mode="normal" in="SourceGraphic" in2="effect1_dropShadow" result="shape"/>
</filter>
<filter id="filter8_d" x="5.02646" y="536.611" width="116.848" height="116.848" filterUnits="userSpaceOnUse" color-interpolation-filters="sRGB">
<feFlood flood-opacity="0" result="BackgroundImageFix"/>
<feColorMatrix in="SourceAlpha" type="matrix" values="0 0 0 0 0 0 0 0 0 0 0 0 0 0 0 0 0 0 127 0"/>
<feOffset dy="4"/>
<feGaussianBlur stdDeviation="2"/>
<feColorMatrix type="matrix" values="0 0 0 0 0.8375 0 0 0 0 0.0697917 0 0 0 0 0.0697917 0 0 0 0.3 0"/>
<feBlend mode="normal" in2="BackgroundImageFix" result="effect1_dropShadow"/>
<feBlend mode="normal" in="SourceGraphic" in2="effect1_dropShadow" result="shape"/>
</filter>
<filter id="filter9_d" x="80.7462" y="556.159" width="71.1131" height="71.1131" filterUnits="userSpaceOnUse" color-interpolation-filters="sRGB">
<feFlood flood-opacity="0" result="BackgroundImageFix"/>
<feColorMatrix in="SourceAlpha" type="matrix" values="0 0 0 0 0 0 0 0 0 0 0 0 0 0 0 0 0 0 127 0"/>
<feOffset dy="4"/>
<feGaussianBlur stdDeviation="2"/>
<feColorMatrix type="matrix" values="0 0 0 0 0.8375 0 0 0 0 0.0697917 0 0 0 0 0.0697917 0 0 0 0.3 0"/>
<feBlend mode="normal" in2="BackgroundImageFix" result="effect1_dropShadow"/>
<feBlend mode="normal" in="SourceGraphic" in2="effect1_dropShadow" result="shape"/>
</filter>
<filter id="filter10_d" x="10.869" y="516.692" width="56.4368" height="56.4368" filterUnits="userSpaceOnUse" color-interpolation-filters="sRGB">
<feFlood flood-opacity="0" result="BackgroundImageFix"/>
<feColorMatrix in="SourceAlpha" type="matrix" values="0 0 0 0 0 0 0 0 0 0 0 0 0 0 0 0 0 0 127 0"/>
<feOffset dy="4"/>
<feGaussianBlur stdDeviation="2"/>
<feColorMatrix type="matrix" values="0 0 0 0 0.8375 0 0 0 0 0.0697917 0 0 0 0 0.0697917 0 0 0 0.3 0"/>
<feBlend mode="normal" in2="BackgroundImageFix" result="effect1_dropShadow"/>
<feBlend mode="normal" in="SourceGraphic" in2="effect1_dropShadow" result="shape"/>
</filter>
<filter id="filter11_d" x="64.3024" y="146.754" width="400.716" height="330.286" filterUnits="userSpaceOnUse" color-interpolation-filters="sRGB">
<feFlood flood-opacity="0" result="BackgroundImageFix"/>
<feColorMatrix in="SourceAlpha" type="matrix" values="0 0 0 0 0 0 0 0 0 0 0 0 0 0 0 0 0 0 127 0"/>
<feOffset dy="4"/>
<feGaussianBlur stdDeviation="2"/>
<feColorMatrix type="matrix" values="0 0 0 0 0 0 0 0 0 0 0 0 0 0 0 0 0 0 0.25 0"/>
<feBlend mode="normal" in2="BackgroundImageFix" result="effect1_dropShadow"/>
<feBlend mode="normal" in="SourceGraphic" in2="effect1_dropShadow" result="shape"/>
</filter>
<filter id="filter12_d" x="64.3024" y="146.754" width="400.716" height="330.286" filterUnits="userSpaceOnUse" color-interpolation-filters="sRGB">
<feFlood flood-opacity="0" result="BackgroundImageFix"/>
<feColorMatrix in="SourceAlpha" type="matrix" values="0 0 0 0 0 0 0 0 0 0 0 0 0 0 0 0 0 0 127 0"/>
<feOffset dy="4"/>
<feGaussianBlur stdDeviation="2"/>
<feColorMatrix type="matrix" values="0 0 0 0 0 0 0 0 0 0 0 0 0 0 0 0 0 0 0.25 0"/>
<feBlend mode="normal" in2="BackgroundImageFix" result="effect1_dropShadow"/>
<feBlend mode="normal" in="SourceGraphic" in2="effect1_dropShadow" result="shape"/>
</filter>
<clipPath id="clip0">
<rect width="520" height="640" fill="white"/>
</clipPath>
<clipPath id="clip1">
<rect width="45.8748" height="45.8748" fill="white" transform="translate(382 36.0643) rotate(-25.9362)"/>
</clipPath>
<clipPath id="clip2">
<rect width="45.8748" height="45.8748" fill="white" transform="translate(147.859 595.227) rotate(148.39)"/>
</clipPath>
</defs>
</svg>
