<svg width="520" height="640" viewBox="0 0 520 640" fill="none" xmlns="http://www.w3.org/2000/svg">
<g clip-path="url(#clip0)">
<rect width="520" height="640" fill="white"/>
<rect x="-19" y="-16" width="560" height="678" fill="#F5F5F5"/>
<g opacity="0.5" filter="url(#filter0_d)">
<path d="M196.584 -24.9478C195.925 -19.3443 183.523 2.73377 139.193 46.2177C94.8616 89.7017 72.156 154.733 66.3446 181.813C55.2337 203.077 27.0654 247.989 3.27945 257.529C-20.5066 267.068 -10.6637 54.3972 -2.76899 -53.1308L196.584 -24.9478Z" fill="#44DF4A"/>
</g>
<g filter="url(#filter1_d)">
<path d="M519.685 305C505.185 323.667 470.685 371.8 448.685 415C421.185 469 412.773 530.445 397.069 550C370.569 583 379.685 612 419.185 625C450.785 635.4 499.351 636 519.685 635V305Z" fill="#A1EFEA"/>
</g>
<g opacity="0.5" filter="url(#filter2_d)">
<path d="M-7.31604 479.111C9.54225 483.516 48.4904 480.098 69.4166 431.18C95.5743 370.033 109.788 318.952 96.5587 278.026C85.9751 245.284 21.7764 198.11 -9.00004 178.616L-7.31604 479.111Z" fill="#595FDD"/>
</g>
<g opacity="0.5" filter="url(#filter3_d)">
<path d="M547 434.622C544.625 405.539 542.102 354.352 484.211 334.41C429.87 315.69 389.359 349.367 376 377.287C395.148 391.745 382.234 381.275 399.156 395.235C407.32 379.447 442.708 353.754 481.539 377.287C520.37 400.819 518.055 423.155 523.398 477L547 434.622Z" fill="#CE407B"/>
</g>
<g opacity="0.5" filter="url(#filter4_d)">
<path d="M349 128H535V84H349V128Z" fill="#FFA800"/>
</g>
<g filter="url(#filter5_d)">
<path d="M486.525 75.1847C484.677 77.1624 482.71 78.8867 480.614 80.3703C477.756 82.396 475.535 83.7077 473.973 84.3212C471.516 85.358 469.217 85.5213 467.075 84.8111C465.553 84.267 463.869 83.1762 462.042 81.5296C460.206 79.8841 458.387 78.7489 456.58 78.1027C454.688 77.4264 452.505 77.1307 450.018 77.2307C447.533 77.3356 445.613 77.1698 444.256 76.7322C442.192 76.0935 440.479 74.4719 439.127 71.8628C438.237 70.2732 437.313 67.7575 436.352 64.3226C435.317 60.6589 434.824 56.6484 434.867 52.3051C434.929 47.6107 435.656 43.3094 437.057 39.3919C438.66 34.9072 441.013 31.3819 444.113 28.8348C446.574 26.7744 449.338 25.4461 452.413 24.8452C455.494 24.242 458.517 24.4529 461.491 25.4603C463.111 26.0398 465.057 27.2995 467.336 29.2269C469.615 31.1542 471.127 32.259 471.863 32.5223C472.42 32.7213 474.501 32.8018 478.102 32.7743C481.494 32.7672 484.191 33.2267 486.206 34.146C491.68 36.6157 495.118 40.3479 496.502 45.3564C498.152 51.3267 498.406 53.4243 496.494 58.9271C494.966 63.3253 494.098 65.1342 492.196 67.9858C490.864 69.9819 490.404 70.524 488.819 72.5006C488.059 73.4487 487.296 74.3398 486.525 75.1847ZM491.783 19.7262C490.586 23.073 488.242 25.763 484.773 27.785C480.599 30.1704 476.329 30.8887 472.584 29.1959C472.678 28.7767 472.804 28.3451 472.963 27.9012C474.113 24.6848 476.737 21.7452 480.235 19.8209C481.983 18.841 483.986 18.218 486.237 17.9578C488.479 17.7104 490.466 17.841 492.196 18.36C492.08 18.8273 491.942 19.2823 491.783 19.7262Z" fill="#D13C3C"/>
</g>
<g clip-path="url(#clip1)" filter="url(#filter6_d)">
<path d="M429.857 48.5211C429.919 49.9024 429.845 51.2369 429.638 52.5323C429.356 54.2997 429.041 55.5794 428.707 56.369C428.207 57.6365 427.445 58.5343 426.42 59.0625C425.677 59.4236 424.677 59.6486 423.423 59.7271C422.167 59.8091 421.102 60.0675 420.22 60.4964C419.297 60.9454 418.409 61.6366 417.557 62.5804C416.707 63.5252 415.96 64.1667 415.315 64.5058C414.344 65.0312 413.14 65.0769 411.705 64.638C410.806 64.3948 409.557 63.8331 407.96 62.9564C406.253 62.0246 404.612 60.7713 403.042 59.2034C401.35 57.5032 400.04 55.7005 399.11 53.789C398.046 51.6008 397.6 49.4818 397.778 47.4397C397.905 45.8049 398.408 44.3212 399.287 42.9836C400.168 41.6434 401.326 40.6149 402.756 39.8894C403.547 39.5048 404.702 39.2448 406.22 39.1016C407.739 38.9584 408.682 38.8012 409.042 38.6265C409.313 38.4944 410.086 37.7634 411.364 36.4387C412.573 35.1979 413.705 34.3776 414.761 33.9703C417.619 32.8545 420.21 32.9334 422.533 34.2181C425.302 35.7495 426.159 36.4065 427.485 39.0712C428.544 41.2009 428.894 42.1642 429.255 43.8779C429.508 45.0775 429.542 45.439 429.697 46.7241C429.772 47.3404 429.824 47.9377 429.857 48.5211ZM411.489 26.7808C412.283 28.4138 412.428 30.2311 411.926 32.2201C411.305 34.5967 410.041 36.4122 408.085 37.1747C407.965 36.9904 407.853 36.79 407.748 36.5734C406.984 35.004 406.849 32.9953 407.396 31.0308C407.664 30.0421 408.152 29.0883 408.861 28.1736C409.572 27.2667 410.33 26.5877 411.138 26.1418C411.267 26.3509 411.384 26.5642 411.489 26.7808Z" fill="#D13C3C"/>
</g>
<g filter="url(#filter7_d)">
<path d="M499.126 110.665C498.526 111.91 497.828 113.05 497.031 114.092C495.944 115.515 495.06 116.492 494.391 117.028C493.35 117.907 492.254 118.336 491.101 118.315C490.276 118.281 489.289 118.005 488.147 117.479C487.002 116.955 485.942 116.678 484.963 116.637C483.937 116.594 482.827 116.782 481.629 117.208C480.433 117.637 479.471 117.848 478.743 117.84C477.639 117.842 476.557 117.311 475.501 116.244C474.826 115.604 473.993 114.517 473.002 112.988C471.941 111.358 471.091 109.476 470.453 107.351C469.77 105.052 469.471 102.843 469.559 100.719C469.66 98.2882 470.272 96.2112 471.398 94.4978C472.285 93.119 473.431 92.0513 474.84 91.2909C476.251 90.5288 477.758 90.1724 479.362 90.2122C480.24 90.2487 481.381 90.5677 482.785 91.1616C484.19 91.7556 485.095 92.0649 485.494 92.0814C485.796 92.094 486.823 91.8171 488.576 91.2567C490.229 90.738 491.614 90.5525 492.737 90.6948C495.783 91.068 498.026 92.3664 499.462 94.5993C501.174 97.261 501.616 98.2456 501.52 101.22C501.442 103.598 501.294 104.612 500.799 106.292C500.453 107.468 500.311 107.802 499.838 109.007C499.611 109.585 499.374 110.136 499.126 110.665ZM493.267 82.8138C493.192 84.6281 492.457 86.2964 491.072 87.8096C489.398 89.6073 487.425 90.6062 485.34 90.3494C485.323 90.1306 485.319 89.9009 485.329 89.6602C485.401 87.9166 486.235 86.084 487.648 84.6142C488.353 83.8705 489.235 83.2624 490.293 82.7936C491.349 82.3324 492.339 82.0942 493.261 82.0847C493.276 82.3302 493.277 82.5732 493.267 82.8138Z" fill="#D13C3C"/>
</g>
<g filter="url(#filter8_d)">
<path d="M39.9791 566.632C41.622 564.482 43.4093 562.571 45.3482 560.888C47.9919 558.59 50.0725 557.065 51.5665 556.3C53.9086 555.025 56.1805 554.635 58.3822 555.13C59.9505 555.521 61.7341 556.44 63.715 557.898C65.7041 559.354 67.6266 560.304 69.4889 560.768C71.4383 561.254 73.6397 561.333 76.1049 560.987C78.5674 560.637 80.4939 560.612 81.8878 560.914C84.0051 561.345 85.8698 562.789 87.473 565.252C88.5156 566.746 89.6841 569.158 90.9802 572.481C92.3717 576.024 93.2589 579.967 93.6455 584.293C94.0486 588.97 93.7501 593.322 92.7437 597.359C91.5915 601.98 89.5985 605.721 86.7655 608.562C84.5202 610.856 81.9015 612.451 78.9004 613.353C75.8947 614.258 72.865 614.347 69.8065 613.638C68.1366 613.222 66.0761 612.161 63.6178 610.468C61.1595 608.775 59.5455 607.825 58.7868 607.636C58.2132 607.493 56.1344 607.619 52.5531 608.002C49.1786 608.345 46.4499 608.154 44.3534 607.439C38.6618 605.522 34.8721 602.148 32.9998 597.301C30.7678 591.523 30.3077 589.461 31.6662 583.796C32.7519 579.268 33.4366 577.382 35.0478 574.357C36.1757 572.239 36.5794 571.654 37.9611 569.53C38.6237 568.512 39.2955 567.549 39.9791 566.632ZM40.2296 622.339C41.0894 618.89 43.1565 615.982 46.4081 613.627C50.3263 610.84 54.5042 609.703 58.3987 611.018C58.3464 611.444 58.2632 611.886 58.1491 612.343C57.3228 615.658 55.0018 618.843 51.7121 621.103C50.0686 622.251 48.1372 623.069 45.9235 623.55C43.7169 624.018 41.7261 624.085 39.9537 623.739C40.0224 623.263 40.1156 622.796 40.2296 622.339Z" fill="#D13C3C"/>
</g>
<g clip-path="url(#clip2)" filter="url(#filter9_d)">
<path d="M99.0053 587.563C98.8073 586.195 98.7486 584.859 98.827 583.55C98.9327 581.763 99.1196 580.459 99.3743 579.64C99.746 578.329 100.416 577.36 101.383 576.733C102.086 576.301 103.059 575.978 104.3 575.776C105.542 575.57 106.576 575.208 107.411 574.694C108.285 574.156 109.101 573.38 109.856 572.356C110.608 571.332 111.287 570.62 111.895 570.219C112.81 569.6 114.003 569.436 115.475 569.73C116.393 569.884 117.692 570.319 119.368 571.034C121.159 571.792 122.915 572.877 124.633 574.282C126.485 575.806 127.967 577.471 129.081 579.281C130.356 581.353 131.01 583.418 131.034 585.467C131.069 587.107 130.716 588.633 129.973 590.051C129.229 591.472 128.178 592.61 126.827 593.473C126.078 593.934 124.954 594.307 123.457 594.599C121.961 594.892 121.037 595.142 120.697 595.351C120.44 595.509 119.743 596.313 118.603 597.758C117.522 599.112 116.477 600.04 115.466 600.55C112.733 601.943 110.146 602.121 107.708 601.072C104.8 599.822 103.883 599.253 102.3 596.732C101.035 594.717 100.592 593.794 100.063 592.124C99.6928 590.955 99.6235 590.599 99.342 589.335C99.207 588.729 99.0958 588.14 99.0053 587.563ZM119.432 607.381C118.481 605.834 118.158 604.04 118.46 602.011C118.843 599.585 119.921 597.653 121.793 596.701C121.93 596.873 122.061 597.061 122.188 597.266C123.102 598.753 123.435 600.738 123.085 602.747C122.917 603.757 122.525 604.755 121.91 605.735C121.292 606.708 120.605 607.458 119.845 607.982C119.696 607.787 119.559 607.586 119.432 607.381Z" fill="#D13C3C"/>
</g>
<g filter="url(#filter10_d)">
<path d="M23.9315 532.572C24.4062 531.273 24.9879 530.07 25.678 528.954C26.6184 527.431 27.4017 526.372 28.0143 525.771C28.9632 524.794 30.0122 524.259 31.1614 524.166C31.9857 524.118 32.9954 524.296 34.1831 524.706C35.3745 525.114 36.4566 525.285 37.4355 525.229C38.4603 525.17 39.546 524.874 40.6961 524.331C41.8441 523.786 42.78 523.481 43.5058 523.416C44.6041 523.305 45.7331 523.727 46.8892 524.684C47.6247 525.255 48.561 526.254 49.698 527.678C50.915 529.195 51.9466 530.983 52.7923 533.035C53.6995 535.255 54.2149 537.423 54.3372 539.545C54.4771 541.975 54.0731 544.102 53.1227 545.918C52.3759 547.378 51.3408 548.554 50.0139 549.45C48.6851 550.348 47.2207 550.851 45.6212 550.97C44.7434 551.021 43.5771 550.816 42.1208 550.364C40.6646 549.912 39.733 549.694 39.3342 549.717C39.0327 549.734 38.0377 550.111 36.349 550.842C34.755 551.522 33.395 551.843 32.2636 551.812C29.1961 551.742 26.835 550.672 25.1855 548.592C23.2191 546.113 22.6814 545.176 22.4836 542.207C22.3254 539.833 22.373 538.809 22.6994 537.089C22.9278 535.884 23.0359 535.538 23.3873 534.292C23.5558 533.694 23.7373 533.123 23.9315 532.572ZM32.5153 559.707C32.4109 557.894 32.9774 556.162 34.2058 554.519C35.6939 552.565 37.5591 551.375 39.6585 551.425C39.6977 551.641 39.7243 551.869 39.7381 552.11C39.8385 553.852 39.1901 555.758 37.9287 557.36C37.3014 558.17 36.4835 558.862 35.4768 559.433C34.4715 559.997 33.5105 560.332 32.5935 560.432C32.5546 560.189 32.5292 559.948 32.5153 559.707Z" fill="#D13C3C"/>
</g>
<g filter="url(#filter11_d)">
<g filter="url(#filter12_d)">
<path d="M137.481 296.26V340.78C137.481 363.74 138.601 377.88 140.841 383.2C143.081 388.24 146.861 393.7 152.181 399.58C157.781 405.18 162.681 407.98 166.881 407.98C171.081 407.98 176.401 405.04 182.841 399.16C189.281 393.28 193.761 387.96 196.281 383.2C197.961 378.44 198.941 371.44 199.221 362.2H170.241V315.58H253.821V463H213.081L208.041 434.44C188.721 456.84 174.441 468.04 165.201 468.04C155.961 468.04 141.261 458.94 121.101 440.74C101.221 422.26 88.9015 407.28 84.1415 395.8C81.0615 388.52 79.5215 370.18 79.5215 340.78V296.26C79.5215 261.26 82.3215 238.86 87.9215 229.06C93.5215 219.26 105.421 205.96 123.621 189.16C142.101 172.36 155.821 163.96 164.781 163.96C180.181 163.96 197.821 172.92 217.701 190.84C237.581 208.76 250.181 228.36 255.501 249.64L208.881 281.98C204.401 266.86 197.261 252.86 187.461 239.98C177.661 227.1 170.801 220.66 166.881 220.66C159.881 220.66 151.901 227.52 142.941 241.24C139.301 246.56 137.481 264.9 137.481 296.26ZM382.118 300.04C380.158 296.68 376.238 293.18 370.358 289.54C364.478 285.9 359.998 284.08 356.918 284.08C353.838 284.08 350.478 285.9 346.838 289.54C343.478 293.18 341.238 296.54 340.118 299.62C337.878 304.1 336.758 318.1 336.758 341.62C336.758 365.14 337.878 379 340.118 383.2C341.238 386 343.478 389.36 346.838 393.28C350.478 396.92 353.838 398.74 356.918 398.74C359.998 398.74 364.478 396.92 370.358 393.28C376.518 389.36 380.578 385.86 382.538 382.78C384.498 379.42 385.478 365.7 385.478 341.62C385.478 317.26 384.358 303.4 382.118 300.04ZM440.078 236.62V449.14C440.078 484.98 438.398 506.26 435.038 512.98C431.958 519.98 420.758 530.9 401.438 545.74C382.118 560.58 367.558 568 357.758 568C348.238 568 336.198 563.1 321.638 553.3C307.078 543.78 296.158 532.72 288.878 520.12L332.138 490.3L336.338 495.76C346.698 508.92 353.838 515.5 357.758 515.5C361.958 515.5 366.578 513.68 371.618 510.04C376.938 506.4 380.438 502.48 382.118 498.28C384.078 494.36 385.058 477.28 385.058 447.04L386.318 430.66C367.278 444.38 354.258 451.24 347.258 451.24C340.538 451.24 329.758 443.82 314.918 428.98C300.078 414.14 291.118 403.08 288.038 395.8C284.958 388.52 283.418 370.46 283.418 341.62C283.418 312.78 284.958 294.72 288.038 287.44C291.118 279.88 300.078 268.68 314.918 253.84C329.758 239 341.098 231.58 348.938 231.58C356.778 231.58 371.758 240.54 393.878 258.46L398.918 236.62H440.078Z" fill="#8748ED"/>
<path d="M140.841 383.2L139.92 383.588L139.924 383.597L139.928 383.606L140.841 383.2ZM152.181 399.58L151.44 400.251L151.457 400.269L151.474 400.287L152.181 399.58ZM182.841 399.16L183.516 399.898L182.841 399.16ZM196.281 383.2L197.165 383.668L197.2 383.603L197.224 383.533L196.281 383.2ZM199.221 362.2L200.221 362.23L200.252 361.2H199.221V362.2ZM170.241 362.2H169.241V363.2H170.241V362.2ZM170.241 315.58V314.58H169.241V315.58H170.241ZM253.822 315.58H254.822V314.58H253.822V315.58ZM253.822 463V464H254.822V463H253.822ZM213.081 463L212.097 463.174L212.243 464H213.081V463ZM208.042 434.44L209.026 434.266L208.66 432.192L207.284 433.787L208.042 434.44ZM121.101 440.74L120.421 441.472L120.426 441.477L120.431 441.482L121.101 440.74ZM84.1415 395.8L85.0653 395.417L85.0625 395.41L84.1415 395.8ZM87.9215 229.06L87.0532 228.564L87.9215 229.06ZM123.621 189.16L122.949 188.42L122.943 188.425L123.621 189.16ZM217.701 190.84L217.032 191.583L217.701 190.84ZM255.501 249.64L256.071 250.462L256.639 250.068L256.472 249.397L255.501 249.64ZM208.881 281.98L207.923 282.264L208.315 283.59L209.451 282.802L208.881 281.98ZM142.941 241.24L143.767 241.805L143.773 241.796L143.779 241.787L142.941 241.24ZM136.481 296.26V340.78H138.481V296.26H136.481ZM136.481 340.78C136.481 352.272 136.762 361.577 137.325 368.684C137.884 375.75 138.73 380.763 139.92 383.588L141.763 382.812C140.713 380.317 139.879 375.6 139.318 368.526C138.761 361.493 138.481 352.248 138.481 340.78H136.481ZM139.928 383.606C142.225 388.775 146.077 394.324 151.44 400.251L152.923 398.909C147.646 393.076 143.938 387.705 141.755 382.794L139.928 383.606ZM151.474 400.287C157.114 405.926 162.262 408.98 166.881 408.98V406.98C163.101 406.98 158.449 404.434 152.889 398.873L151.474 400.287ZM166.881 408.98C169.21 408.98 171.759 408.168 174.505 406.65C177.256 405.13 180.261 402.871 183.516 399.898L182.167 398.422C178.982 401.329 176.107 403.48 173.538 404.9C170.964 406.322 168.753 406.98 166.881 406.98V408.98ZM183.516 399.898C189.995 393.983 194.569 388.573 197.165 383.668L195.398 382.732C192.954 387.347 188.568 392.577 182.167 398.422L183.516 399.898ZM197.224 383.533C198.956 378.626 199.94 371.503 200.221 362.23L198.222 362.17C197.943 371.377 196.967 378.254 195.339 382.867L197.224 383.533ZM199.221 361.2H170.241V363.2H199.221V361.2ZM171.241 362.2V315.58H169.241V362.2H171.241ZM170.241 316.58H253.822V314.58H170.241V316.58ZM252.822 315.58V463H254.822V315.58H252.822ZM253.822 462H213.081V464H253.822V462ZM214.066 462.826L209.026 434.266L207.057 434.614L212.097 463.174L214.066 462.826ZM207.284 433.787C197.644 444.964 189.292 453.31 182.224 458.853C175.116 464.428 169.466 467.04 165.201 467.04V469.04C170.177 469.04 176.287 466.052 183.459 460.427C190.671 454.77 199.119 446.316 208.799 435.093L207.284 433.787ZM165.201 467.04C160.869 467.04 155.081 464.889 147.773 460.365C140.494 455.859 131.829 449.077 121.772 439.998L120.431 441.482C130.534 450.603 139.299 457.471 146.72 462.065C154.112 466.641 160.294 469.04 165.201 469.04V467.04ZM121.782 440.008C101.912 421.536 89.7359 406.682 85.0652 395.417L83.2177 396.183C88.0671 407.878 100.531 422.984 120.421 441.472L121.782 440.008ZM85.0625 395.41C83.5904 391.931 82.4427 385.669 81.673 376.501C80.9063 367.37 80.5215 355.466 80.5215 340.78H78.5215C78.5215 355.494 78.9067 367.46 79.68 376.669C80.4502 385.841 81.6126 392.389 83.2205 396.19L85.0625 395.41ZM80.5215 340.78V296.26H78.5215V340.78H80.5215ZM80.5215 296.26C80.5215 278.782 81.2209 264.477 82.6138 253.334C84.0105 242.16 86.0926 234.276 88.7897 229.556L87.0532 228.564C84.1503 233.644 82.0325 241.86 80.6292 253.086C79.2221 264.343 78.5215 278.738 78.5215 296.26H80.5215ZM88.7897 229.556C94.3076 219.9 106.107 206.688 124.3 189.895L122.943 188.425C104.736 205.232 92.7353 218.62 87.0532 228.564L88.7897 229.556ZM124.294 189.9C133.51 181.522 141.508 175.267 148.294 171.113C155.104 166.943 160.581 164.96 164.781 164.96V162.96C160.022 162.96 154.159 165.177 147.249 169.407C140.315 173.653 132.213 179.998 122.949 188.42L124.294 189.9ZM164.781 164.96C179.807 164.96 197.212 173.717 217.032 191.583L218.371 190.097C198.431 172.123 180.556 162.96 164.781 162.96V164.96ZM217.032 191.583C236.797 209.399 249.269 228.834 254.531 249.883L256.472 249.397C251.094 227.886 238.366 208.121 218.371 190.097L217.032 191.583ZM254.932 248.818L208.312 281.158L209.451 282.802L256.071 250.462L254.932 248.818ZM209.84 281.696C205.325 266.457 198.129 252.348 188.257 239.374L186.666 240.586C196.394 253.372 203.478 267.263 207.923 282.264L209.84 281.696ZM188.257 239.374C183.344 232.917 179.14 228.036 175.651 224.761C173.907 223.124 172.317 221.864 170.886 221.009C169.467 220.162 168.12 219.66 166.881 219.66V221.66C167.603 221.66 168.583 221.963 169.86 222.726C171.123 223.481 172.596 224.636 174.282 226.219C177.653 229.383 181.779 234.163 186.666 240.586L188.257 239.374ZM166.881 219.66C163.047 219.66 159.078 221.537 154.995 225.047C150.905 228.562 146.61 233.793 142.104 240.693L143.779 241.787C148.232 234.967 152.408 229.908 156.298 226.563C160.195 223.213 163.716 221.66 166.881 221.66V219.66ZM142.116 240.675C141.098 242.163 140.269 244.455 139.578 247.446C138.883 250.461 138.309 254.278 137.851 258.886C136.937 268.104 136.481 280.566 136.481 296.26H138.481C138.481 280.594 138.936 268.206 139.842 259.084C140.294 254.522 140.858 250.797 141.527 247.896C142.202 244.972 142.965 242.977 143.767 241.805L142.116 240.675ZM382.118 300.04L381.255 300.544L381.27 300.57L381.286 300.595L382.118 300.04ZM370.358 289.54L370.885 288.69L370.358 289.54ZM346.838 289.54L346.131 288.833L346.117 288.847L346.104 288.862L346.838 289.54ZM340.118 299.62L341.013 300.067L341.039 300.016L341.058 299.962L340.118 299.62ZM340.118 383.2L341.047 382.829L341.026 382.778L341.001 382.729L340.118 383.2ZM346.838 393.28L346.079 393.931L346.104 393.96L346.131 393.987L346.838 393.28ZM370.358 393.28L370.885 394.13L370.895 394.124L370.358 393.28ZM382.538 382.78L383.382 383.317L383.392 383.301L383.402 383.284L382.538 382.78ZM440.078 236.62H441.078V235.62H440.078V236.62ZM435.038 512.98L434.144 512.533L434.133 512.555L434.123 512.577L435.038 512.98ZM401.438 545.74L402.048 546.533L401.438 545.74ZM321.638 553.3L322.197 552.47L322.186 552.463L321.638 553.3ZM288.878 520.12L288.311 519.297L287.551 519.821L288.012 520.62L288.878 520.12ZM332.138 490.3L332.931 489.69L332.352 488.938L331.571 489.477L332.138 490.3ZM336.338 495.76L335.546 496.37L335.553 496.379L336.338 495.76ZM371.618 510.04L371.054 509.215L371.043 509.222L371.033 509.229L371.618 510.04ZM382.118 498.28L381.224 497.833L381.205 497.87L381.19 497.909L382.118 498.28ZM385.058 447.04L384.061 446.963L384.058 447.002V447.04H385.058ZM386.318 430.66L387.315 430.737L387.481 428.59L385.734 429.849L386.318 430.66ZM314.918 428.98L314.211 429.687L314.918 428.98ZM288.038 395.8L288.959 395.41L288.038 395.8ZM288.038 287.44L288.959 287.83L288.964 287.817L288.038 287.44ZM314.918 253.84L314.211 253.133L314.918 253.84ZM393.878 258.46L393.249 259.237L394.493 260.245L394.853 258.685L393.878 258.46ZM398.918 236.62V235.62H398.123L397.944 236.395L398.918 236.62ZM382.982 299.536C380.898 295.964 376.811 292.358 370.885 288.69L369.832 290.39C375.666 294.002 379.418 297.396 381.255 300.544L382.982 299.536ZM370.885 288.69C367.915 286.852 365.274 285.457 362.965 284.519C360.666 283.585 358.64 283.08 356.918 283.08V285.08C358.277 285.08 360.031 285.485 362.212 286.371C364.383 287.253 366.921 288.588 369.832 290.39L370.885 288.69ZM356.918 283.08C353.442 283.08 349.84 285.124 346.131 288.833L347.545 290.247C351.117 286.676 354.234 285.08 356.918 285.08V283.08ZM346.104 288.862C342.695 292.554 340.361 296.027 339.179 299.278L341.058 299.962C342.116 297.053 344.262 293.806 347.573 290.218L346.104 288.862ZM339.224 299.173C338.599 300.422 338.089 302.249 337.664 304.586C337.236 306.941 336.883 309.882 336.602 313.4C336.038 320.438 335.758 329.849 335.758 341.62H337.758C337.758 329.871 338.038 320.521 338.595 313.56C338.874 310.078 339.22 307.209 339.632 304.944C340.047 302.661 340.517 301.058 341.013 300.067L339.224 299.173ZM335.758 341.62C335.758 353.391 336.038 362.767 336.602 369.736C336.883 373.219 337.237 376.118 337.665 378.422C338.09 380.705 338.602 382.481 339.236 383.671L341.001 382.729C340.515 381.819 340.047 380.288 339.632 378.056C339.22 375.845 338.874 373.021 338.595 369.574C338.038 362.683 337.758 353.369 337.758 341.62H335.758ZM339.19 383.571C340.37 386.521 342.691 389.978 346.079 393.931L347.598 392.629C344.266 388.742 342.107 385.479 341.047 382.829L339.19 383.571ZM346.131 393.987C349.84 397.696 353.442 399.74 356.918 399.74V397.74C354.234 397.74 351.117 396.144 347.545 392.573L346.131 393.987ZM356.918 399.74C358.64 399.74 360.666 399.235 362.965 398.301C365.274 397.363 367.915 395.968 370.885 394.13L369.832 392.43C366.921 394.232 364.383 395.567 362.212 396.449C360.031 397.335 358.277 397.74 356.918 397.74V399.74ZM370.895 394.124C377.079 390.188 381.298 386.591 383.382 383.317L381.695 382.243C379.858 385.129 375.957 388.532 369.822 392.436L370.895 394.124ZM383.402 383.284C383.99 382.276 384.441 380.631 384.81 378.487C385.185 376.306 385.495 373.488 385.741 370.041C386.233 363.146 386.478 353.669 386.478 341.62H384.478C384.478 353.651 384.233 363.074 383.746 369.899C383.502 373.312 383.199 376.059 382.839 378.148C382.473 380.274 382.066 381.604 381.675 382.276L383.402 383.284ZM386.478 341.62C386.478 329.43 386.198 319.844 385.635 312.874C385.354 309.391 385 306.541 384.57 304.337C384.147 302.172 383.629 300.503 382.95 299.485L381.286 300.595C381.728 301.257 382.189 302.581 382.607 304.72C383.017 306.821 383.363 309.589 383.642 313.036C384.198 319.926 384.478 329.45 384.478 341.62H386.478ZM439.078 236.62V449.14H441.078V236.62H439.078ZM439.078 449.14C439.078 467.049 438.658 481.299 437.821 491.901C437.403 497.203 436.881 501.577 436.259 505.033C435.634 508.507 434.919 510.983 434.144 512.533L435.933 513.427C436.838 511.617 437.593 508.913 438.228 505.387C438.866 501.843 439.394 497.397 439.815 492.059C440.658 481.381 441.078 467.071 441.078 449.14H439.078ZM434.123 512.577C432.665 515.891 429.214 520.26 423.63 525.704C418.069 531.126 410.473 537.539 400.829 544.947L402.048 546.533C411.724 539.101 419.387 532.634 425.026 527.136C430.643 521.66 434.332 517.069 435.954 513.383L434.123 512.577ZM400.829 544.947C391.197 552.346 382.78 557.872 375.574 561.544C368.353 565.224 362.429 567 357.758 567V569C362.888 569 369.144 567.066 376.482 563.326C383.837 559.578 392.36 553.974 402.048 546.533L400.829 544.947ZM357.758 567C348.544 567 336.711 562.24 322.197 552.47L321.08 554.13C335.685 563.96 347.932 569 357.758 569V567ZM322.186 552.463C307.731 543.012 296.932 532.06 289.744 519.62L288.012 520.62C295.385 533.38 306.425 544.548 321.091 554.137L322.186 552.463ZM289.446 520.943L332.706 491.123L331.571 489.477L288.311 519.297L289.446 520.943ZM331.346 490.91L335.546 496.37L337.131 495.15L332.931 489.69L331.346 490.91ZM335.553 496.379C340.746 502.975 345.159 507.958 348.786 511.3C350.599 512.971 352.239 514.255 353.703 515.126C355.152 515.987 356.517 516.5 357.758 516.5V514.5C357.039 514.5 356.043 514.19 354.726 513.407C353.425 512.633 351.898 511.449 350.141 509.83C346.628 506.592 342.291 501.705 337.124 495.141L335.553 496.379ZM357.758 516.5C362.248 516.5 367.071 514.558 372.204 510.851L371.033 509.229C366.085 512.802 361.669 514.5 357.758 514.5V516.5ZM372.183 510.865C377.6 507.159 381.268 503.098 383.047 498.651L381.19 497.909C379.609 501.862 376.277 505.641 371.054 509.215L372.183 510.865ZM383.013 498.727C383.584 497.585 384.028 495.634 384.395 493.011C384.768 490.348 385.076 486.87 385.322 482.587C385.813 474.019 386.058 462.167 386.058 447.04H384.058C384.058 462.153 383.813 473.961 383.325 482.473C383.081 486.73 382.776 490.147 382.414 492.734C382.046 495.361 381.633 497.015 381.224 497.833L383.013 498.727ZM386.055 447.117L387.315 430.737L385.321 430.583L384.061 446.963L386.055 447.117ZM385.734 429.849C376.232 436.695 368.259 441.811 361.807 445.21C355.316 448.631 350.497 450.24 347.258 450.24V452.24C351.02 452.24 356.211 450.419 362.74 446.98C369.307 443.519 377.365 438.345 386.903 431.471L385.734 429.849ZM347.258 450.24C344.217 450.24 340.056 448.538 334.7 444.851C329.381 441.19 323.025 435.672 315.625 428.273L314.211 429.687C321.652 437.128 328.106 442.74 333.566 446.499C338.99 450.232 343.579 452.24 347.258 452.24V450.24ZM315.625 428.273C308.22 420.867 302.296 414.419 297.845 408.926C293.385 403.42 290.445 398.921 288.959 395.41L287.117 396.19C288.712 399.959 291.791 404.63 296.291 410.184C300.801 415.751 306.777 422.253 314.211 429.687L315.625 428.273ZM288.959 395.41C287.487 391.93 286.339 385.735 285.57 376.71C284.803 367.72 284.418 356.026 284.418 341.62H282.418C282.418 356.054 282.804 367.81 283.577 376.88C284.347 385.915 285.51 392.39 287.117 396.19L288.959 395.41ZM284.418 341.62C284.418 327.214 284.803 315.52 285.57 306.53C286.339 297.505 287.487 291.31 288.959 287.83L287.117 287.05C285.51 290.85 284.347 297.325 283.577 306.36C282.804 315.43 282.418 327.186 282.418 341.62H284.418ZM288.964 287.817C290.451 284.169 293.391 279.567 297.849 273.995C302.298 268.433 308.221 261.952 315.625 254.547L314.211 253.133C306.776 260.568 300.798 267.107 296.287 272.745C291.786 278.373 288.706 283.151 287.112 287.063L288.964 287.817ZM315.625 254.547C323.02 247.152 329.511 241.64 335.101 237.982C340.713 234.31 345.309 232.58 348.938 232.58V230.58C344.728 230.58 339.734 232.56 334.006 236.308C328.256 240.07 321.656 245.688 314.211 253.133L315.625 254.547ZM348.938 232.58C352.561 232.58 358.058 234.683 365.54 239.158C372.972 243.604 382.206 250.291 393.249 259.237L394.508 257.683C383.431 248.709 374.114 241.956 366.567 237.442C359.069 232.957 353.156 230.58 348.938 230.58V232.58ZM394.853 258.685L399.893 236.845L397.944 236.395L392.904 258.235L394.853 258.685ZM398.918 237.62H440.078V235.62H398.918V237.62Z" fill="#5C00A5"/>
</g>
</g>
<path d="M102.936 393.24C99.8695 343.789 100.651 294.207 100.651 244.683" stroke="white" stroke-width="9" stroke-linecap="round" stroke-linejoin="round"/>
<path d="M112.078 221.828C124.324 215.025 136.42 208.914 146.361 198.973" stroke="white" stroke-width="9" stroke-linecap="round" stroke-linejoin="round"/>
<path d="M310.916 306.391C306.3 325.95 301.494 345.002 303.044 365.306C304.198 380.434 309.96 385.375 315.487 397.811" stroke="white" stroke-width="9" stroke-linecap="round" stroke-linejoin="round"/>
<path d="M322.343 281.251C335.67 271.401 347.122 267.538 363.482 267.538" stroke="white" stroke-width="9" stroke-linecap="round" stroke-linejoin="round"/>
</g>
<defs>
<filter id="filter0_d" x="-20" y="-57" width="226.014" height="323.068" filterUnits="userSpaceOnUse" color-interpolation-filters="sRGB">
<feFlood flood-opacity="0" result="BackgroundImageFix"/>
<feColorMatrix in="SourceAlpha" type="matrix" values="0 0 0 0 0 0 0 0 0 0 0 0 0 0 0 0 0 0 127 0"/>
<feOffset dy="4"/>
<feGaussianBlur stdDeviation="2"/>
<feColorMatrix type="matrix" values="0 0 0 0 0 0 0 0 0 0 0 0 0 0 0 0 0 0 0.25 0"/>
<feBlend mode="normal" in2="BackgroundImageFix" result="effect1_dropShadow"/>
<feBlend mode="normal" in="SourceGraphic" in2="effect1_dropShadow" result="shape"/>
</filter>
<filter id="filter1_d" x="378" y="305" width="145.685" height="338.343" filterUnits="userSpaceOnUse" color-interpolation-filters="sRGB">
<feFlood flood-opacity="0" result="BackgroundImageFix"/>
<feColorMatrix in="SourceAlpha" type="matrix" values="0 0 0 0 0 0 0 0 0 0 0 0 0 0 0 0 0 0 127 0"/>
<feOffset dy="4"/>
<feGaussianBlur stdDeviation="2"/>
<feColorMatrix type="matrix" values="0 0 0 0 0 0 0 0 0 0 0 0 0 0 0 0 0 0 0.25 0"/>
<feBlend mode="normal" in2="BackgroundImageFix" result="effect1_dropShadow"/>
<feBlend mode="normal" in="SourceGraphic" in2="effect1_dropShadow" result="shape"/>
</filter>
<filter id="filter2_d" x="-13.0001" y="178" width="119.528" height="310.584" filterUnits="userSpaceOnUse" color-interpolation-filters="sRGB">
<feFlood flood-opacity="0" result="BackgroundImageFix"/>
<feColorMatrix in="SourceAlpha" type="matrix" values="0 0 0 0 0 0 0 0 0 0 0 0 0 0 0 0 0 0 127 0"/>
<feOffset dy="4"/>
<feGaussianBlur stdDeviation="2"/>
<feColorMatrix type="matrix" values="0 0 0 0 0 0 0 0 0 0 0 0 0 0 0 0 0 0 0.25 0"/>
<feBlend mode="normal" in2="BackgroundImageFix" result="effect1_dropShadow"/>
<feBlend mode="normal" in="SourceGraphic" in2="effect1_dropShadow" result="shape"/>
</filter>
<filter id="filter3_d" x="372" y="329" width="179" height="156" filterUnits="userSpaceOnUse" color-interpolation-filters="sRGB">
<feFlood flood-opacity="0" result="BackgroundImageFix"/>
<feColorMatrix in="SourceAlpha" type="matrix" values="0 0 0 0 0 0 0 0 0 0 0 0 0 0 0 0 0 0 127 0"/>
<feOffset dy="4"/>
<feGaussianBlur stdDeviation="2"/>
<feColorMatrix type="matrix" values="0 0 0 0 0 0 0 0 0 0 0 0 0 0 0 0 0 0 0.25 0"/>
<feBlend mode="normal" in2="BackgroundImageFix" result="effect1_dropShadow"/>
<feBlend mode="normal" in="SourceGraphic" in2="effect1_dropShadow" result="shape"/>
</filter>
<filter id="filter4_d" x="345" y="84" width="194" height="52" filterUnits="userSpaceOnUse" color-interpolation-filters="sRGB">
<feFlood flood-opacity="0" result="BackgroundImageFix"/>
<feColorMatrix in="SourceAlpha" type="matrix" values="0 0 0 0 0 0 0 0 0 0 0 0 0 0 0 0 0 0 127 0"/>
<feOffset dy="4"/>
<feGaussianBlur stdDeviation="2"/>
<feColorMatrix type="matrix" values="0 0 0 0 0 0 0 0 0 0 0 0 0 0 0 0 0 0 0.25 0"/>
<feBlend mode="normal" in2="BackgroundImageFix" result="effect1_dropShadow"/>
<feBlend mode="normal" in="SourceGraphic" in2="effect1_dropShadow" result="shape"/>
</filter>
<filter id="filter5_d" x="404.191" y="-8.80899" width="122.78" height="122.78" filterUnits="userSpaceOnUse" color-interpolation-filters="sRGB">
<feFlood flood-opacity="0" result="BackgroundImageFix"/>
<feColorMatrix in="SourceAlpha" type="matrix" values="0 0 0 0 0 0 0 0 0 0 0 0 0 0 0 0 0 0 127 0"/>
<feOffset dy="4"/>
<feGaussianBlur stdDeviation="2"/>
<feColorMatrix type="matrix" values="0 0 0 0 0.8375 0 0 0 0 0.0697917 0 0 0 0 0.0697917 0 0 0 0.3 0"/>
<feBlend mode="normal" in2="BackgroundImageFix" result="effect1_dropShadow"/>
<feBlend mode="normal" in="SourceGraphic" in2="effect1_dropShadow" result="shape"/>
</filter>
<filter id="filter6_d" x="378" y="16" width="69.3186" height="69.3186" filterUnits="userSpaceOnUse" color-interpolation-filters="sRGB">
<feFlood flood-opacity="0" result="BackgroundImageFix"/>
<feColorMatrix in="SourceAlpha" type="matrix" values="0 0 0 0 0 0 0 0 0 0 0 0 0 0 0 0 0 0 127 0"/>
<feOffset dy="4"/>
<feGaussianBlur stdDeviation="2"/>
<feColorMatrix type="matrix" values="0 0 0 0 0.8375 0 0 0 0 0.0697917 0 0 0 0 0.0697917 0 0 0 0.3 0"/>
<feBlend mode="normal" in2="BackgroundImageFix" result="effect1_dropShadow"/>
<feBlend mode="normal" in="SourceGraphic" in2="effect1_dropShadow" result="shape"/>
</filter>
<filter id="filter7_d" x="457" y="77" width="55.7383" height="55.7383" filterUnits="userSpaceOnUse" color-interpolation-filters="sRGB">
<feFlood flood-opacity="0" result="BackgroundImageFix"/>
<feColorMatrix in="SourceAlpha" type="matrix" values="0 0 0 0 0 0 0 0 0 0 0 0 0 0 0 0 0 0 127 0"/>
<feOffset dy="4"/>
<feGaussianBlur stdDeviation="2"/>
<feColorMatrix type="matrix" values="0 0 0 0 0.8375 0 0 0 0 0.0697917 0 0 0 0 0.0697917 0 0 0 0.3 0"/>
<feBlend mode="normal" in2="BackgroundImageFix" result="effect1_dropShadow"/>
<feBlend mode="normal" in="SourceGraphic" in2="effect1_dropShadow" result="shape"/>
</filter>
<filter id="filter8_d" x="5.02643" y="536.611" width="116.848" height="116.848" filterUnits="userSpaceOnUse" color-interpolation-filters="sRGB">
<feFlood flood-opacity="0" result="BackgroundImageFix"/>
<feColorMatrix in="SourceAlpha" type="matrix" values="0 0 0 0 0 0 0 0 0 0 0 0 0 0 0 0 0 0 127 0"/>
<feOffset dy="4"/>
<feGaussianBlur stdDeviation="2"/>
<feColorMatrix type="matrix" values="0 0 0 0 0.8375 0 0 0 0 0.0697917 0 0 0 0 0.0697917 0 0 0 0.3 0"/>
<feBlend mode="normal" in2="BackgroundImageFix" result="effect1_dropShadow"/>
<feBlend mode="normal" in="SourceGraphic" in2="effect1_dropShadow" result="shape"/>
</filter>
<filter id="filter9_d" x="80.7462" y="556.159" width="71.1131" height="71.1131" filterUnits="userSpaceOnUse" color-interpolation-filters="sRGB">
<feFlood flood-opacity="0" result="BackgroundImageFix"/>
<feColorMatrix in="SourceAlpha" type="matrix" values="0 0 0 0 0 0 0 0 0 0 0 0 0 0 0 0 0 0 127 0"/>
<feOffset dy="4"/>
<feGaussianBlur stdDeviation="2"/>
<feColorMatrix type="matrix" values="0 0 0 0 0.8375 0 0 0 0 0.0697917 0 0 0 0 0.0697917 0 0 0 0.3 0"/>
<feBlend mode="normal" in2="BackgroundImageFix" result="effect1_dropShadow"/>
<feBlend mode="normal" in="SourceGraphic" in2="effect1_dropShadow" result="shape"/>
</filter>
<filter id="filter10_d" x="10.869" y="516.692" width="56.4368" height="56.4368" filterUnits="userSpaceOnUse" color-interpolation-filters="sRGB">
<feFlood flood-opacity="0" result="BackgroundImageFix"/>
<feColorMatrix in="SourceAlpha" type="matrix" values="0 0 0 0 0 0 0 0 0 0 0 0 0 0 0 0 0 0 127 0"/>
<feOffset dy="4"/>
<feGaussianBlur stdDeviation="2"/>
<feColorMatrix type="matrix" values="0 0 0 0 0.8375 0 0 0 0 0.0697917 0 0 0 0 0.0697917 0 0 0 0.3 0"/>
<feBlend mode="normal" in2="BackgroundImageFix" result="effect1_dropShadow"/>
<feBlend mode="normal" in="SourceGraphic" in2="effect1_dropShadow" result="shape"/>
</filter>
<filter id="filter11_d" x="74.5215" y="162.96" width="370.557" height="414.04" filterUnits="userSpaceOnUse" color-interpolation-filters="sRGB">
<feFlood flood-opacity="0" result="BackgroundImageFix"/>
<feColorMatrix in="SourceAlpha" type="matrix" values="0 0 0 0 0 0 0 0 0 0 0 0 0 0 0 0 0 0 127 0"/>
<feOffset dy="4"/>
<feGaussianBlur stdDeviation="2"/>
<feColorMatrix type="matrix" values="0 0 0 0 0 0 0 0 0 0 0 0 0 0 0 0 0 0 0.25 0"/>
<feBlend mode="normal" in2="BackgroundImageFix" result="effect1_dropShadow"/>
<feBlend mode="normal" in="SourceGraphic" in2="effect1_dropShadow" result="shape"/>
</filter>
<filter id="filter12_d" x="74.5215" y="162.96" width="370.557" height="414.04" filterUnits="userSpaceOnUse" color-interpolation-filters="sRGB">
<feFlood flood-opacity="0" result="BackgroundImageFix"/>
<feColorMatrix in="SourceAlpha" type="matrix" values="0 0 0 0 0 0 0 0 0 0 0 0 0 0 0 0 0 0 127 0"/>
<feOffset dy="4"/>
<feGaussianBlur stdDeviation="2"/>
<feColorMatrix type="matrix" values="0 0 0 0 0 0 0 0 0 0 0 0 0 0 0 0 0 0 0.25 0"/>
<feBlend mode="normal" in2="BackgroundImageFix" result="effect1_dropShadow"/>
<feBlend mode="normal" in="SourceGraphic" in2="effect1_dropShadow" result="shape"/>
</filter>
<clipPath id="clip0">
<rect width="520" height="640" fill="white"/>
</clipPath>
<clipPath id="clip1">
<rect width="45.8748" height="45.8748" fill="white" transform="translate(382 36.0642) rotate(-25.9362)"/>
</clipPath>
<clipPath id="clip2">
<rect width="45.8748" height="45.8748" fill="white" transform="translate(147.859 595.227) rotate(148.39)"/>
</clipPath>
</defs>
</svg>
