<svg width="520" height="640" viewBox="0 0 520 640" fill="none" xmlns="http://www.w3.org/2000/svg">
<g clip-path="url(#clip0)">
<rect width="520" height="640" fill="white"/>
<rect x="-19" y="-16" width="560" height="678" fill="#F5F5F5"/>
<g opacity="0.5" filter="url(#filter0_d)">
<path d="M196.584 -24.9478C195.925 -19.3443 183.523 2.73377 139.193 46.2177C94.8617 89.7017 72.1561 154.733 66.3446 181.813C55.2337 203.077 27.0655 247.989 3.27946 257.529C-20.5066 267.068 -10.6637 54.3972 -2.76898 -53.1308L196.584 -24.9478Z" fill="#44DF4A"/>
</g>
<g filter="url(#filter1_d)">
<path d="M519.685 305C505.185 323.667 470.685 371.8 448.685 415C421.185 469 412.773 530.445 397.069 550C370.569 583 379.685 612 419.185 625C450.785 635.4 499.351 636 519.685 635V305Z" fill="#A1EFEA"/>
</g>
<g opacity="0.5" filter="url(#filter2_d)">
<path d="M-7.31601 479.111C9.54228 483.516 48.4904 480.098 69.4166 431.18C95.5743 370.033 109.788 318.952 96.5587 278.026C85.9751 245.284 21.7764 198.11 -9.00001 178.616L-7.31601 479.111Z" fill="#595FDD"/>
</g>
<g opacity="0.5" filter="url(#filter3_d)">
<path d="M547 434.622C544.625 405.539 542.102 354.352 484.211 334.41C429.87 315.69 389.359 349.367 376 377.287C395.148 391.745 382.234 381.275 399.156 395.235C407.32 379.447 442.708 353.754 481.539 377.287C520.37 400.819 518.055 423.155 523.398 477L547 434.622Z" fill="#CE407B"/>
</g>
<g opacity="0.5" filter="url(#filter4_d)">
<path d="M349 128H535V84H349V128Z" fill="#FFA800"/>
</g>
<g filter="url(#filter5_d)">
<path d="M486.525 75.1847C484.677 77.1624 482.71 78.8867 480.614 80.3703C477.756 82.396 475.535 83.7077 473.973 84.3212C471.516 85.358 469.217 85.5213 467.075 84.8111C465.553 84.267 463.869 83.1762 462.042 81.5296C460.206 79.8841 458.387 78.7489 456.58 78.1027C454.688 77.4264 452.505 77.1307 450.018 77.2307C447.533 77.3356 445.613 77.1698 444.256 76.7322C442.192 76.0935 440.479 74.4719 439.127 71.8628C438.237 70.2732 437.313 67.7575 436.352 64.3226C435.317 60.6589 434.824 56.6484 434.867 52.3051C434.929 47.6107 435.656 43.3094 437.057 39.3919C438.66 34.9072 441.013 31.3819 444.113 28.8348C446.574 26.7744 449.338 25.4461 452.413 24.8452C455.494 24.242 458.517 24.4529 461.491 25.4603C463.111 26.0398 465.057 27.2995 467.336 29.2269C469.615 31.1542 471.127 32.259 471.863 32.5223C472.42 32.7213 474.501 32.8018 478.102 32.7743C481.494 32.7672 484.191 33.2267 486.206 34.146C491.68 36.6157 495.118 40.3479 496.502 45.3564C498.152 51.3267 498.406 53.4243 496.494 58.9271C494.966 63.3253 494.098 65.1342 492.196 67.9858C490.864 69.9819 490.404 70.524 488.819 72.5006C488.059 73.4487 487.296 74.3398 486.525 75.1847ZM491.783 19.7262C490.586 23.073 488.242 25.763 484.773 27.785C480.599 30.1704 476.329 30.8887 472.584 29.1959C472.678 28.7767 472.804 28.3451 472.963 27.9012C474.113 24.6848 476.737 21.7452 480.235 19.8209C481.983 18.841 483.986 18.218 486.237 17.9578C488.479 17.7104 490.466 17.841 492.196 18.36C492.081 18.8273 491.942 19.2823 491.783 19.7262Z" fill="#D13C3C"/>
</g>
<g clip-path="url(#clip1)" filter="url(#filter6_d)">
<path d="M429.857 48.5211C429.919 49.9024 429.845 51.2369 429.638 52.5323C429.356 54.2997 429.041 55.5794 428.706 56.369C428.207 57.6365 427.445 58.5343 426.42 59.0625C425.677 59.4236 424.677 59.6486 423.423 59.7271C422.167 59.8091 421.102 60.0675 420.22 60.4964C419.297 60.9454 418.409 61.6366 417.557 62.5804C416.707 63.5252 415.96 64.1667 415.315 64.5058C414.344 65.0312 413.14 65.0769 411.705 64.638C410.806 64.3948 409.557 63.8331 407.96 62.9564C406.253 62.0246 404.612 60.7713 403.042 59.2034C401.35 57.5032 400.04 55.7005 399.11 53.789C398.046 51.6008 397.6 49.4818 397.778 47.4397C397.905 45.8049 398.408 44.3212 399.287 42.9836C400.168 41.6434 401.326 40.6149 402.756 39.8894C403.547 39.5048 404.702 39.2448 406.22 39.1016C407.739 38.9584 408.682 38.8012 409.042 38.6265C409.313 38.4944 410.086 37.7634 411.363 36.4387C412.573 35.1979 413.705 34.3776 414.761 33.9703C417.619 32.8545 420.21 32.9334 422.533 34.2181C425.302 35.7495 426.159 36.4065 427.484 39.0712C428.544 41.2009 428.894 42.1642 429.255 43.8779C429.508 45.0775 429.542 45.439 429.697 46.7241C429.772 47.3404 429.824 47.9377 429.857 48.5211ZM411.489 26.7808C412.283 28.4138 412.428 30.2311 411.926 32.2201C411.305 34.5967 410.041 36.4122 408.085 37.1747C407.965 36.9904 407.853 36.79 407.748 36.5734C406.984 35.004 406.849 32.9953 407.396 31.0308C407.664 30.0421 408.152 29.0883 408.861 28.1736C409.572 27.2667 410.33 26.5877 411.138 26.1418C411.267 26.3509 411.384 26.5642 411.489 26.7808Z" fill="#D13C3C"/>
</g>
<g filter="url(#filter7_d)">
<path d="M499.126 110.665C498.526 111.91 497.828 113.05 497.031 114.092C495.944 115.515 495.06 116.492 494.391 117.028C493.35 117.907 492.254 118.336 491.101 118.315C490.276 118.281 489.289 118.005 488.147 117.479C487.002 116.955 485.942 116.678 484.963 116.637C483.937 116.594 482.827 116.782 481.629 117.208C480.433 117.637 479.471 117.848 478.743 117.84C477.639 117.842 476.557 117.311 475.501 116.244C474.826 115.604 473.993 114.517 473.002 112.988C471.941 111.358 471.091 109.476 470.453 107.351C469.77 105.052 469.471 102.843 469.559 100.719C469.66 98.2882 470.272 96.2112 471.398 94.4978C472.285 93.119 473.431 92.0513 474.84 91.2909C476.251 90.5288 477.758 90.1724 479.362 90.2122C480.24 90.2487 481.381 90.5677 482.785 91.1616C484.19 91.7556 485.095 92.0649 485.494 92.0814C485.796 92.094 486.823 91.8171 488.576 91.2567C490.229 90.738 491.614 90.5525 492.737 90.6948C495.783 91.068 498.026 92.3664 499.462 94.5993C501.174 97.261 501.616 98.2456 501.52 101.22C501.442 103.598 501.294 104.612 500.799 106.292C500.453 107.468 500.311 107.802 499.838 109.007C499.611 109.585 499.374 110.136 499.126 110.665ZM493.267 82.8138C493.192 84.6281 492.457 86.2964 491.072 87.8096C489.398 89.6073 487.424 90.6062 485.34 90.3494C485.323 90.1306 485.319 89.9009 485.329 89.6602C485.401 87.9166 486.235 86.084 487.648 84.6142C488.353 83.8705 489.235 83.2624 490.293 82.7936C491.349 82.3324 492.339 82.0942 493.261 82.0847C493.276 82.3302 493.277 82.5732 493.267 82.8138Z" fill="#D13C3C"/>
</g>
<g filter="url(#filter8_d)">
<path d="M39.979 566.632C41.6219 564.482 43.4092 562.571 45.3482 560.888C47.9918 558.59 50.0724 557.065 51.5665 556.3C53.9086 555.025 56.1805 554.635 58.3822 555.13C59.9504 555.521 61.7341 556.44 63.715 557.898C65.704 559.354 67.6265 560.304 69.4888 560.768C71.4383 561.254 73.6397 561.333 76.1049 560.987C78.5674 560.637 80.4938 560.612 81.8878 560.914C84.005 561.345 85.8698 562.789 87.4729 565.252C88.5156 566.746 89.684 569.158 90.9801 572.481C92.3716 576.024 93.2588 579.967 93.6454 584.293C94.0486 588.97 93.7501 593.322 92.7436 597.359C91.5914 601.98 89.5984 605.721 86.7655 608.562C84.5202 610.856 81.9015 612.451 78.9003 613.353C75.8947 614.258 72.8649 614.347 69.8065 613.638C68.1366 613.222 66.0761 612.161 63.6177 610.468C61.1594 608.775 59.5454 607.825 58.7867 607.636C58.2131 607.493 56.1343 607.619 52.553 608.002C49.1786 608.345 46.4499 608.154 44.3533 607.439C38.6617 605.522 34.872 602.148 32.9997 597.301C30.7678 591.523 30.3077 589.461 31.6661 583.796C32.7518 579.268 33.4365 577.382 35.0478 574.357C36.1756 572.239 36.5793 571.654 37.961 569.53C38.6237 568.512 39.2954 567.549 39.979 566.632ZM40.2295 622.339C41.0894 618.89 43.1564 615.982 46.408 613.627C50.3262 610.84 54.5041 609.703 58.3987 611.018C58.3463 611.444 58.2631 611.886 58.1491 612.343C57.3227 615.658 55.0018 618.843 51.712 621.103C50.0685 622.251 48.1372 623.069 45.9234 623.55C43.7169 624.018 41.7261 624.085 39.9537 623.739C40.0223 623.263 40.1155 622.796 40.2295 622.339Z" fill="#D13C3C"/>
</g>
<g clip-path="url(#clip2)" filter="url(#filter9_d)">
<path d="M99.0053 587.563C98.8073 586.195 98.7486 584.859 98.827 583.55C98.9327 581.763 99.1196 580.459 99.3743 579.64C99.746 578.329 100.416 577.36 101.383 576.733C102.086 576.301 103.059 575.978 104.3 575.776C105.542 575.57 106.576 575.208 107.411 574.694C108.285 574.156 109.101 573.38 109.856 572.356C110.608 571.332 111.287 570.62 111.895 570.219C112.81 569.6 114.003 569.436 115.475 569.73C116.393 569.884 117.692 570.319 119.368 571.034C121.159 571.792 122.915 572.877 124.633 574.282C126.485 575.806 127.967 577.471 129.081 579.281C130.356 581.353 131.01 583.418 131.034 585.467C131.069 587.107 130.716 588.633 129.973 590.051C129.229 591.472 128.178 592.61 126.827 593.473C126.078 593.934 124.954 594.307 123.457 594.599C121.961 594.892 121.037 595.142 120.697 595.351C120.44 595.509 119.743 596.313 118.603 597.758C117.522 599.112 116.477 600.04 115.466 600.55C112.733 601.943 110.146 602.121 107.708 601.072C104.8 599.822 103.883 599.253 102.3 596.732C101.035 594.717 100.592 593.794 100.063 592.124C99.6928 590.955 99.6235 590.599 99.342 589.335C99.207 588.729 99.0958 588.14 99.0053 587.563ZM119.432 607.381C118.481 605.834 118.158 604.04 118.46 602.011C118.843 599.585 119.921 597.653 121.793 596.701C121.93 596.873 122.061 597.061 122.188 597.266C123.102 598.753 123.435 600.738 123.085 602.747C122.917 603.757 122.525 604.755 121.91 605.735C121.292 606.708 120.605 607.458 119.845 607.982C119.696 607.787 119.559 607.586 119.432 607.381Z" fill="#D13C3C"/>
</g>
<g filter="url(#filter10_d)">
<path d="M23.9315 532.572C24.4062 531.273 24.9879 530.07 25.678 528.954C26.6184 527.431 27.4017 526.372 28.0143 525.771C28.9632 524.794 30.0122 524.259 31.1613 524.166C31.9857 524.118 32.9954 524.296 34.1831 524.706C35.3745 525.114 36.4566 525.285 37.4355 525.229C38.4603 525.17 39.546 524.874 40.6961 524.331C41.8441 523.786 42.78 523.481 43.5058 523.416C44.6041 523.305 45.7331 523.727 46.8892 524.684C47.6247 525.255 48.561 526.254 49.698 527.678C50.915 529.195 51.9466 530.983 52.7923 533.035C53.6994 535.255 54.2149 537.423 54.3371 539.545C54.4771 541.975 54.0731 544.102 53.1227 545.918C52.3759 547.378 51.3408 548.554 50.0138 549.45C48.6851 550.348 47.2207 550.851 45.6212 550.97C44.7434 551.021 43.5771 550.816 42.1208 550.364C40.6646 549.912 39.733 549.694 39.3341 549.717C39.0326 549.734 38.0377 550.111 36.349 550.842C34.755 551.522 33.3949 551.843 32.2636 551.812C29.1961 551.742 26.835 550.672 25.1854 548.592C23.2191 546.113 22.6814 545.176 22.4836 542.207C22.3254 539.833 22.373 538.809 22.6993 537.089C22.9278 535.884 23.0359 535.538 23.3873 534.292C23.5558 533.694 23.7373 533.123 23.9315 532.572ZM32.5153 559.707C32.4109 557.894 32.9774 556.162 34.2058 554.519C35.6938 552.565 37.5591 551.375 39.6585 551.425C39.6977 551.641 39.7243 551.869 39.7381 552.11C39.8385 553.852 39.19 555.758 37.9287 557.36C37.3014 558.17 36.4835 558.862 35.4768 559.433C34.4715 559.997 33.5105 560.332 32.5935 560.432C32.5546 560.189 32.5292 559.948 32.5153 559.707Z" fill="#D13C3C"/>
</g>
<g filter="url(#filter11_d)">
<g filter="url(#filter12_d)">
<path d="M182.027 463V328.6H124.067V463H66.107V283.24C66.107 259.44 64.427 242.92 61.067 233.68C57.987 224.16 51.267 212.68 40.907 199.24L91.307 163.96C100.267 169.84 107.967 180.76 114.407 196.72C120.847 212.4 124.067 231.44 124.067 253.84V278.2H182.027V169H239.987V463H182.027ZM343.803 463H288.363V233.68C288.363 219.4 286.683 208.48 283.323 200.92C279.963 193.36 274.643 186.5 267.363 180.34L313.562 148C333.723 163.96 343.803 186.5 343.803 215.62V254.68C361.163 239.28 373.763 231.58 381.603 231.58C389.443 231.58 401.903 239.42 418.983 255.1C436.343 270.5 445.023 285.76 445.023 300.88V381.94C445.023 396.22 446.703 407.28 450.063 415.12C453.423 422.96 458.743 429.82 466.023 435.7L419.823 468.04C399.663 452.08 389.583 429.4 389.583 400V306.76C389.583 302 387.063 297.1 382.023 292.06C376.983 286.74 372.223 284.08 367.743 284.08C363.543 284.08 355.563 289.96 343.803 301.72V463Z" fill="#CC48ED"/>
<path d="M182.027 463H181.027V464H182.027V463ZM182.027 328.6H183.027V327.6H182.027V328.6ZM124.067 328.6V327.6H123.067V328.6H124.067ZM124.067 463V464H125.067V463H124.067ZM66.107 463H65.107V464H66.107V463ZM61.067 233.68L60.1156 233.988L60.1211 234.005L60.1272 234.022L61.067 233.68ZM40.907 199.24L40.3336 198.421L39.4758 199.021L40.115 199.851L40.907 199.24ZM91.307 163.96L91.8557 163.124L91.2889 162.752L90.7336 163.141L91.307 163.96ZM114.407 196.72L113.48 197.094L113.482 197.1L114.407 196.72ZM124.067 278.2H123.067V279.2H124.067V278.2ZM182.027 278.2V279.2H183.027V278.2H182.027ZM182.027 169V168H181.027V169H182.027ZM239.987 169H240.987V168H239.987V169ZM239.987 463V464H240.987V463H239.987ZM183.027 463V328.6H181.027V463H183.027ZM182.027 327.6H124.067V329.6H182.027V327.6ZM123.067 328.6V463H125.067V328.6H123.067ZM124.067 462H66.107V464H124.067V462ZM67.107 463V283.24H65.107V463H67.107ZM67.107 283.24C67.107 259.443 65.4334 242.761 62.0068 233.338L60.1272 234.022C63.4206 243.079 65.107 259.437 65.107 283.24H67.107ZM62.0185 233.372C58.8869 223.693 52.0874 212.106 41.699 198.629L40.115 199.851C50.4466 213.254 57.0872 224.627 60.1156 233.988L62.0185 233.372ZM41.4805 200.059L91.8805 164.779L90.7336 163.141L40.3336 198.421L41.4805 200.059ZM90.7584 164.796C99.4731 170.515 107.074 181.218 113.48 197.094L115.334 196.346C108.86 180.302 101.061 169.165 91.8557 163.124L90.7584 164.796ZM113.482 197.1C119.859 212.627 123.067 231.531 123.067 253.84H125.067C125.067 231.349 121.835 212.173 115.332 196.34L113.482 197.1ZM123.067 253.84V278.2H125.067V253.84H123.067ZM124.067 279.2H182.027V277.2H124.067V279.2ZM183.027 278.2V169H181.027V278.2H183.027ZM182.027 170H239.987V168H182.027V170ZM238.987 169V463H240.987V169H238.987ZM239.987 462H182.027V464H239.987V462ZM343.802 463V464H344.802V463H343.802ZM288.362 463H287.362V464H288.362V463ZM267.363 180.34L266.789 179.521L265.726 180.265L266.717 181.103L267.363 180.34ZM313.562 148L314.183 147.216L313.599 146.754L312.989 147.181L313.562 148ZM343.802 254.68H342.802V256.904L344.466 255.428L343.802 254.68ZM418.983 255.1L418.306 255.837L418.313 255.842L418.319 255.848L418.983 255.1ZM450.062 415.12L450.982 414.726L450.062 415.12ZM466.023 435.7L466.596 436.519L467.685 435.757L466.651 434.922L466.023 435.7ZM419.823 468.04L419.202 468.824L419.786 469.286L420.396 468.859L419.823 468.04ZM382.023 292.06L381.297 292.748L381.306 292.758L381.315 292.767L382.023 292.06ZM343.802 301.72L343.095 301.013L342.802 301.306V301.72H343.802ZM343.802 462H288.362V464H343.802V462ZM289.362 463V233.68H287.362V463H289.362ZM289.362 233.68C289.362 219.347 287.68 208.263 284.236 200.514L282.409 201.326C285.685 208.697 287.362 219.453 287.362 233.68H289.362ZM284.236 200.514C280.806 192.797 275.386 185.819 268.008 179.577L266.717 181.103C273.899 187.181 279.119 193.923 282.409 201.326L284.236 200.514ZM267.936 181.159L314.136 148.819L312.989 147.181L266.789 179.521L267.936 181.159ZM312.942 148.784C332.828 164.528 342.802 186.76 342.802 215.62H344.802C344.802 186.24 334.617 163.392 314.183 147.216L312.942 148.784ZM342.802 215.62V254.68H344.802V215.62H342.802ZM344.466 255.428C353.124 247.748 360.564 242.015 366.794 238.208C373.054 234.383 377.967 232.58 381.603 232.58V230.58C377.398 230.58 372.091 232.627 365.751 236.502C359.381 240.395 351.841 246.212 343.139 253.932L344.466 255.428ZM381.603 232.58C385.231 232.58 390.106 234.412 396.295 238.306C402.453 242.181 409.789 248.017 418.306 255.837L419.659 254.363C411.096 246.503 403.662 240.579 397.36 236.614C391.089 232.668 385.814 230.58 381.603 230.58V232.58ZM418.319 255.848C435.579 271.16 444.023 286.17 444.023 300.88H446.023C446.023 285.35 437.106 269.84 419.646 254.352L418.319 255.848ZM444.023 300.88V381.94H446.023V300.88H444.023ZM444.023 381.94C444.023 396.276 445.706 407.493 449.143 415.514L450.982 414.726C447.699 407.067 446.023 396.164 446.023 381.94H444.023ZM449.143 415.514C452.574 423.518 458 430.506 465.394 436.478L466.651 434.922C459.485 429.134 454.271 422.402 450.982 414.726L449.143 415.514ZM465.449 434.881L419.249 467.221L420.396 468.859L466.596 436.519L465.449 434.881ZM420.443 467.256C400.559 451.514 390.583 429.144 390.583 400H388.583C388.583 429.656 398.766 452.646 419.202 468.824L420.443 467.256ZM390.583 400V306.76H388.583V400H390.583ZM390.583 306.76C390.583 301.628 387.865 296.488 382.73 291.353L381.315 292.767C386.26 297.712 388.583 302.372 388.583 306.76H390.583ZM382.748 291.372C377.635 285.975 372.629 283.08 367.742 283.08V285.08C371.816 285.08 376.33 287.505 381.297 292.748L382.748 291.372ZM367.742 283.08C366.477 283.08 365.034 283.517 363.449 284.282C361.852 285.053 360.038 286.194 358.014 287.685C353.966 290.668 348.991 295.118 343.095 301.013L344.51 302.427C350.374 296.562 355.269 292.192 359.201 289.295C361.167 287.846 362.871 286.782 364.319 286.083C365.779 285.378 366.908 285.08 367.742 285.08V283.08ZM342.802 301.72V463H344.802V301.72H342.802Z" fill="#8E00A5"/>
</g>
</g>
<path d="M70.3043 212.686C98.1697 268.827 101.065 338.277 95.4447 400.097" stroke="white" stroke-width="9" stroke-linecap="round" stroke-linejoin="round"/>
<path d="M125.156 294.964C135.822 294.964 146.487 294.964 157.153 294.964" stroke="white" stroke-width="9" stroke-linecap="round" stroke-linejoin="round"/>
<path d="M294.282 185.26C306.699 224.391 305.475 266.051 303.424 306.645C302.168 331.519 299.338 355.632 305.71 379.527" stroke="white" stroke-width="9" stroke-linecap="round" stroke-linejoin="round"/>
<path d="M305.71 406.953C304.213 417.217 305.22 426.385 305.71 436.664" stroke="white" stroke-width="9" stroke-linecap="round" stroke-linejoin="round"/>
</g>
<defs>
<filter id="filter0_d" x="-20" y="-57" width="226.014" height="323.068" filterUnits="userSpaceOnUse" color-interpolation-filters="sRGB">
<feFlood flood-opacity="0" result="BackgroundImageFix"/>
<feColorMatrix in="SourceAlpha" type="matrix" values="0 0 0 0 0 0 0 0 0 0 0 0 0 0 0 0 0 0 127 0"/>
<feOffset dy="4"/>
<feGaussianBlur stdDeviation="2"/>
<feColorMatrix type="matrix" values="0 0 0 0 0 0 0 0 0 0 0 0 0 0 0 0 0 0 0.25 0"/>
<feBlend mode="normal" in2="BackgroundImageFix" result="effect1_dropShadow"/>
<feBlend mode="normal" in="SourceGraphic" in2="effect1_dropShadow" result="shape"/>
</filter>
<filter id="filter1_d" x="378" y="305" width="145.685" height="338.343" filterUnits="userSpaceOnUse" color-interpolation-filters="sRGB">
<feFlood flood-opacity="0" result="BackgroundImageFix"/>
<feColorMatrix in="SourceAlpha" type="matrix" values="0 0 0 0 0 0 0 0 0 0 0 0 0 0 0 0 0 0 127 0"/>
<feOffset dy="4"/>
<feGaussianBlur stdDeviation="2"/>
<feColorMatrix type="matrix" values="0 0 0 0 0 0 0 0 0 0 0 0 0 0 0 0 0 0 0.25 0"/>
<feBlend mode="normal" in2="BackgroundImageFix" result="effect1_dropShadow"/>
<feBlend mode="normal" in="SourceGraphic" in2="effect1_dropShadow" result="shape"/>
</filter>
<filter id="filter2_d" x="-13" y="178" width="119.528" height="310.584" filterUnits="userSpaceOnUse" color-interpolation-filters="sRGB">
<feFlood flood-opacity="0" result="BackgroundImageFix"/>
<feColorMatrix in="SourceAlpha" type="matrix" values="0 0 0 0 0 0 0 0 0 0 0 0 0 0 0 0 0 0 127 0"/>
<feOffset dy="4"/>
<feGaussianBlur stdDeviation="2"/>
<feColorMatrix type="matrix" values="0 0 0 0 0 0 0 0 0 0 0 0 0 0 0 0 0 0 0.25 0"/>
<feBlend mode="normal" in2="BackgroundImageFix" result="effect1_dropShadow"/>
<feBlend mode="normal" in="SourceGraphic" in2="effect1_dropShadow" result="shape"/>
</filter>
<filter id="filter3_d" x="372" y="329" width="179" height="156" filterUnits="userSpaceOnUse" color-interpolation-filters="sRGB">
<feFlood flood-opacity="0" result="BackgroundImageFix"/>
<feColorMatrix in="SourceAlpha" type="matrix" values="0 0 0 0 0 0 0 0 0 0 0 0 0 0 0 0 0 0 127 0"/>
<feOffset dy="4"/>
<feGaussianBlur stdDeviation="2"/>
<feColorMatrix type="matrix" values="0 0 0 0 0 0 0 0 0 0 0 0 0 0 0 0 0 0 0.25 0"/>
<feBlend mode="normal" in2="BackgroundImageFix" result="effect1_dropShadow"/>
<feBlend mode="normal" in="SourceGraphic" in2="effect1_dropShadow" result="shape"/>
</filter>
<filter id="filter4_d" x="345" y="84" width="194" height="52" filterUnits="userSpaceOnUse" color-interpolation-filters="sRGB">
<feFlood flood-opacity="0" result="BackgroundImageFix"/>
<feColorMatrix in="SourceAlpha" type="matrix" values="0 0 0 0 0 0 0 0 0 0 0 0 0 0 0 0 0 0 127 0"/>
<feOffset dy="4"/>
<feGaussianBlur stdDeviation="2"/>
<feColorMatrix type="matrix" values="0 0 0 0 0 0 0 0 0 0 0 0 0 0 0 0 0 0 0.25 0"/>
<feBlend mode="normal" in2="BackgroundImageFix" result="effect1_dropShadow"/>
<feBlend mode="normal" in="SourceGraphic" in2="effect1_dropShadow" result="shape"/>
</filter>
<filter id="filter5_d" x="404.191" y="-8.80899" width="122.78" height="122.78" filterUnits="userSpaceOnUse" color-interpolation-filters="sRGB">
<feFlood flood-opacity="0" result="BackgroundImageFix"/>
<feColorMatrix in="SourceAlpha" type="matrix" values="0 0 0 0 0 0 0 0 0 0 0 0 0 0 0 0 0 0 127 0"/>
<feOffset dy="4"/>
<feGaussianBlur stdDeviation="2"/>
<feColorMatrix type="matrix" values="0 0 0 0 0.8375 0 0 0 0 0.0697917 0 0 0 0 0.0697917 0 0 0 0.3 0"/>
<feBlend mode="normal" in2="BackgroundImageFix" result="effect1_dropShadow"/>
<feBlend mode="normal" in="SourceGraphic" in2="effect1_dropShadow" result="shape"/>
</filter>
<filter id="filter6_d" x="378" y="16" width="69.3186" height="69.3186" filterUnits="userSpaceOnUse" color-interpolation-filters="sRGB">
<feFlood flood-opacity="0" result="BackgroundImageFix"/>
<feColorMatrix in="SourceAlpha" type="matrix" values="0 0 0 0 0 0 0 0 0 0 0 0 0 0 0 0 0 0 127 0"/>
<feOffset dy="4"/>
<feGaussianBlur stdDeviation="2"/>
<feColorMatrix type="matrix" values="0 0 0 0 0.8375 0 0 0 0 0.0697917 0 0 0 0 0.0697917 0 0 0 0.3 0"/>
<feBlend mode="normal" in2="BackgroundImageFix" result="effect1_dropShadow"/>
<feBlend mode="normal" in="SourceGraphic" in2="effect1_dropShadow" result="shape"/>
</filter>
<filter id="filter7_d" x="457" y="77" width="55.7383" height="55.7383" filterUnits="userSpaceOnUse" color-interpolation-filters="sRGB">
<feFlood flood-opacity="0" result="BackgroundImageFix"/>
<feColorMatrix in="SourceAlpha" type="matrix" values="0 0 0 0 0 0 0 0 0 0 0 0 0 0 0 0 0 0 127 0"/>
<feOffset dy="4"/>
<feGaussianBlur stdDeviation="2"/>
<feColorMatrix type="matrix" values="0 0 0 0 0.8375 0 0 0 0 0.0697917 0 0 0 0 0.0697917 0 0 0 0.3 0"/>
<feBlend mode="normal" in2="BackgroundImageFix" result="effect1_dropShadow"/>
<feBlend mode="normal" in="SourceGraphic" in2="effect1_dropShadow" result="shape"/>
</filter>
<filter id="filter8_d" x="5.02641" y="536.611" width="116.848" height="116.848" filterUnits="userSpaceOnUse" color-interpolation-filters="sRGB">
<feFlood flood-opacity="0" result="BackgroundImageFix"/>
<feColorMatrix in="SourceAlpha" type="matrix" values="0 0 0 0 0 0 0 0 0 0 0 0 0 0 0 0 0 0 127 0"/>
<feOffset dy="4"/>
<feGaussianBlur stdDeviation="2"/>
<feColorMatrix type="matrix" values="0 0 0 0 0.8375 0 0 0 0 0.0697917 0 0 0 0 0.0697917 0 0 0 0.3 0"/>
<feBlend mode="normal" in2="BackgroundImageFix" result="effect1_dropShadow"/>
<feBlend mode="normal" in="SourceGraphic" in2="effect1_dropShadow" result="shape"/>
</filter>
<filter id="filter9_d" x="80.7462" y="556.159" width="71.1131" height="71.1131" filterUnits="userSpaceOnUse" color-interpolation-filters="sRGB">
<feFlood flood-opacity="0" result="BackgroundImageFix"/>
<feColorMatrix in="SourceAlpha" type="matrix" values="0 0 0 0 0 0 0 0 0 0 0 0 0 0 0 0 0 0 127 0"/>
<feOffset dy="4"/>
<feGaussianBlur stdDeviation="2"/>
<feColorMatrix type="matrix" values="0 0 0 0 0.8375 0 0 0 0 0.0697917 0 0 0 0 0.0697917 0 0 0 0.3 0"/>
<feBlend mode="normal" in2="BackgroundImageFix" result="effect1_dropShadow"/>
<feBlend mode="normal" in="SourceGraphic" in2="effect1_dropShadow" result="shape"/>
</filter>
<filter id="filter10_d" x="10.8689" y="516.692" width="56.4368" height="56.4368" filterUnits="userSpaceOnUse" color-interpolation-filters="sRGB">
<feFlood flood-opacity="0" result="BackgroundImageFix"/>
<feColorMatrix in="SourceAlpha" type="matrix" values="0 0 0 0 0 0 0 0 0 0 0 0 0 0 0 0 0 0 127 0"/>
<feOffset dy="4"/>
<feGaussianBlur stdDeviation="2"/>
<feColorMatrix type="matrix" values="0 0 0 0 0.8375 0 0 0 0 0.0697917 0 0 0 0 0.0697917 0 0 0 0.3 0"/>
<feBlend mode="normal" in2="BackgroundImageFix" result="effect1_dropShadow"/>
<feBlend mode="normal" in="SourceGraphic" in2="effect1_dropShadow" result="shape"/>
</filter>
<filter id="filter11_d" x="35.4758" y="146.754" width="436.209" height="330.533" filterUnits="userSpaceOnUse" color-interpolation-filters="sRGB">
<feFlood flood-opacity="0" result="BackgroundImageFix"/>
<feColorMatrix in="SourceAlpha" type="matrix" values="0 0 0 0 0 0 0 0 0 0 0 0 0 0 0 0 0 0 127 0"/>
<feOffset dy="4"/>
<feGaussianBlur stdDeviation="2"/>
<feColorMatrix type="matrix" values="0 0 0 0 0 0 0 0 0 0 0 0 0 0 0 0 0 0 0.25 0"/>
<feBlend mode="normal" in2="BackgroundImageFix" result="effect1_dropShadow"/>
<feBlend mode="normal" in="SourceGraphic" in2="effect1_dropShadow" result="shape"/>
</filter>
<filter id="filter12_d" x="35.4758" y="146.754" width="436.209" height="330.533" filterUnits="userSpaceOnUse" color-interpolation-filters="sRGB">
<feFlood flood-opacity="0" result="BackgroundImageFix"/>
<feColorMatrix in="SourceAlpha" type="matrix" values="0 0 0 0 0 0 0 0 0 0 0 0 0 0 0 0 0 0 127 0"/>
<feOffset dy="4"/>
<feGaussianBlur stdDeviation="2"/>
<feColorMatrix type="matrix" values="0 0 0 0 0 0 0 0 0 0 0 0 0 0 0 0 0 0 0.25 0"/>
<feBlend mode="normal" in2="BackgroundImageFix" result="effect1_dropShadow"/>
<feBlend mode="normal" in="SourceGraphic" in2="effect1_dropShadow" result="shape"/>
</filter>
<clipPath id="clip0">
<rect width="520" height="640" fill="white"/>
</clipPath>
<clipPath id="clip1">
<rect width="45.8748" height="45.8748" fill="white" transform="translate(382 36.0642) rotate(-25.9362)"/>
</clipPath>
<clipPath id="clip2">
<rect width="45.8748" height="45.8748" fill="white" transform="translate(147.859 595.227) rotate(148.39)"/>
</clipPath>
</defs>
</svg>
